<svg width="430" height="932" viewBox="0 0 430 932" fill="none" xmlns="http://www.w3.org/2000/svg">
<g clip-path="url(#clip0_10_5)">
<rect width="430" height="932" fill="url(#paint0_linear_10_5)"/>
<ellipse cx="225" cy="455" rx="128" ry="31" fill="#FDC0CD"/>
<path d="M188.336 636.492H178.57C178.44 635.49 178.173 634.585 177.77 633.777C177.366 632.97 176.832 632.28 176.168 631.707C175.504 631.134 174.716 630.698 173.805 630.398C172.906 630.086 171.91 629.93 170.816 629.93C168.876 629.93 167.203 630.405 165.797 631.355C164.404 632.306 163.329 633.68 162.574 635.477C161.832 637.273 161.461 639.448 161.461 642C161.461 644.656 161.839 646.883 162.594 648.68C163.362 650.464 164.436 651.811 165.816 652.723C167.21 653.621 168.857 654.07 170.758 654.07C171.826 654.07 172.796 653.934 173.668 653.66C174.553 653.387 175.328 652.99 175.992 652.469C176.669 651.935 177.223 651.29 177.652 650.535C178.095 649.767 178.401 648.901 178.57 647.938L188.336 647.996C188.167 649.767 187.652 651.512 186.793 653.23C185.947 654.949 184.781 656.518 183.297 657.937C181.813 659.344 180.003 660.464 177.867 661.297C175.745 662.13 173.31 662.547 170.563 662.547C166.943 662.547 163.701 661.753 160.836 660.164C157.984 658.562 155.732 656.232 154.078 653.172C152.424 650.112 151.598 646.388 151.598 642C151.598 637.599 152.438 633.868 154.117 630.809C155.797 627.749 158.069 625.424 160.934 623.836C163.798 622.247 167.008 621.453 170.563 621.453C172.984 621.453 175.224 621.792 177.281 622.469C179.339 623.133 181.148 624.109 182.711 625.398C184.273 626.674 185.543 628.243 186.52 630.105C187.496 631.967 188.102 634.096 188.336 636.492ZM203.419 644.891V662H193.868V622H203.106V637.508H203.438C204.116 635.659 205.222 634.214 206.759 633.172C208.308 632.13 210.203 631.609 212.442 631.609C214.552 631.609 216.388 632.078 217.95 633.016C219.513 633.94 220.724 635.249 221.583 636.941C222.455 638.634 222.885 640.613 222.872 642.879V662H213.321V644.754C213.334 643.087 212.918 641.785 212.071 640.848C211.225 639.91 210.034 639.441 208.497 639.441C207.494 639.441 206.609 639.663 205.841 640.105C205.086 640.535 204.493 641.154 204.063 641.961C203.647 642.768 203.432 643.745 203.419 644.891ZM237.291 662.508C235.377 662.508 233.678 662.189 232.193 661.551C230.722 660.9 229.557 659.923 228.697 658.621C227.851 657.306 227.428 655.659 227.428 653.68C227.428 652.013 227.721 650.607 228.307 649.461C228.893 648.315 229.7 647.384 230.729 646.668C231.757 645.952 232.942 645.411 234.283 645.047C235.624 644.669 237.057 644.415 238.58 644.285C240.286 644.129 241.66 643.966 242.701 643.797C243.743 643.615 244.498 643.361 244.967 643.035C245.449 642.697 245.689 642.221 245.689 641.609V641.512C245.689 640.509 245.344 639.734 244.654 639.187C243.964 638.641 243.033 638.367 241.861 638.367C240.598 638.367 239.583 638.641 238.814 639.187C238.046 639.734 237.558 640.49 237.35 641.453L228.541 641.141C228.801 639.318 229.472 637.69 230.553 636.258C231.646 634.813 233.144 633.68 235.045 632.859C236.959 632.026 239.257 631.609 241.939 631.609C243.854 631.609 245.618 631.837 247.232 632.293C248.847 632.736 250.253 633.387 251.451 634.246C252.649 635.092 253.574 636.134 254.225 637.371C254.889 638.608 255.221 640.021 255.221 641.609V662H246.236V657.82H246.002C245.468 658.836 244.785 659.695 243.951 660.398C243.131 661.102 242.161 661.629 241.041 661.98C239.934 662.332 238.684 662.508 237.291 662.508ZM240.24 656.258C241.269 656.258 242.193 656.049 243.014 655.633C243.847 655.216 244.511 654.643 245.006 653.914C245.501 653.172 245.748 652.312 245.748 651.336V648.484C245.475 648.628 245.143 648.758 244.752 648.875C244.374 648.992 243.958 649.103 243.502 649.207C243.046 649.311 242.577 649.402 242.096 649.48C241.614 649.559 241.152 649.63 240.709 649.695C239.811 649.839 239.042 650.06 238.404 650.359C237.779 650.659 237.298 651.049 236.959 651.531C236.633 652 236.471 652.56 236.471 653.211C236.471 654.201 236.822 654.956 237.525 655.477C238.242 655.997 239.146 656.258 240.24 656.258ZM277.994 632V639.031H259.068V632H277.994ZM263.033 624.812H272.584V652.566C272.584 653.152 272.675 653.628 272.857 653.992C273.053 654.344 273.333 654.598 273.697 654.754C274.062 654.897 274.498 654.969 275.006 654.969C275.37 654.969 275.755 654.936 276.158 654.871C276.575 654.793 276.887 654.728 277.096 654.676L278.541 661.57C278.085 661.701 277.441 661.863 276.607 662.059C275.787 662.254 274.804 662.378 273.658 662.43C271.419 662.534 269.498 662.273 267.896 661.648C266.308 661.01 265.09 660.021 264.244 658.68C263.411 657.339 263.007 655.652 263.033 653.621V624.812Z" fill="black"/>
<path d="M82.0028 691.693L79.5969 692.119C79.4963 691.811 79.3365 691.518 79.1175 691.24C78.9045 690.962 78.6145 690.734 78.2475 690.556C77.8806 690.379 77.4219 690.29 76.8714 690.29C76.1198 690.29 75.4924 690.459 74.9893 690.796C74.4863 691.128 74.2347 691.557 74.2347 692.083C74.2347 692.539 74.4034 692.906 74.7408 693.184C75.0781 693.462 75.6226 693.69 76.3743 693.868L78.5405 694.365C79.7952 694.655 80.7304 695.102 81.3459 695.706C81.9614 696.309 82.2692 697.094 82.2692 698.058C82.2692 698.875 82.0324 699.603 81.5589 700.242C81.0914 700.875 80.4374 701.373 79.5969 701.734C78.7624 702.095 77.7947 702.275 76.6939 702.275C75.1669 702.275 73.921 701.95 72.9563 701.299C71.9916 700.642 71.3997 699.71 71.1808 698.502L73.7464 698.112C73.9063 698.78 74.2347 699.286 74.7319 699.63C75.229 699.967 75.8771 700.136 76.6761 700.136C77.5462 700.136 78.2416 699.955 78.7624 699.594C79.2833 699.227 79.5437 698.78 79.5437 698.254C79.5437 697.827 79.3839 697.469 79.0643 697.179C78.7506 696.889 78.2682 696.67 77.6172 696.522L75.3089 696.016C74.0365 695.726 73.0954 695.265 72.4858 694.631C71.8821 693.998 71.5803 693.196 71.5803 692.225C71.5803 691.421 71.8052 690.716 72.255 690.113C72.7048 689.509 73.3262 689.038 74.1193 688.701C74.9124 688.358 75.8209 688.186 76.8448 688.186C78.3185 688.186 79.4786 688.506 80.3249 689.145C81.1713 689.778 81.7306 690.627 82.0028 691.693ZM87.8422 693.903V702H85.1878V683.818H87.8067V690.583H87.9754C88.295 689.849 88.7833 689.266 89.4403 688.834C90.0972 688.402 90.9554 688.186 92.0148 688.186C92.95 688.186 93.7667 688.378 94.4651 688.763C95.1694 689.148 95.7139 689.722 96.0986 690.485C96.4893 691.243 96.6846 692.19 96.6846 693.326V702H94.0301V693.646C94.0301 692.646 93.7726 691.87 93.2577 691.32C92.7428 690.764 92.0267 690.485 91.1093 690.485C90.4819 690.485 89.9197 690.619 89.4225 690.885C88.9313 691.151 88.5436 691.542 88.2595 692.057C87.9813 692.566 87.8422 693.181 87.8422 693.903ZM104.195 702.302C103.331 702.302 102.55 702.142 101.851 701.822C101.153 701.497 100.6 701.026 100.191 700.411C99.7889 699.795 99.5876 699.041 99.5876 698.147C99.5876 697.378 99.7356 696.744 100.032 696.247C100.327 695.75 100.727 695.356 101.23 695.066C101.733 694.776 102.295 694.557 102.917 694.409C103.538 694.261 104.172 694.149 104.817 694.072C105.633 693.977 106.296 693.9 106.805 693.841C107.314 693.776 107.684 693.673 107.915 693.531C108.146 693.388 108.261 693.158 108.261 692.838V692.776C108.261 692.001 108.042 691.4 107.604 690.974C107.172 690.548 106.527 690.335 105.669 690.335C104.775 690.335 104.071 690.533 103.556 690.929C103.047 691.32 102.695 691.755 102.5 692.234L100.005 691.666C100.301 690.838 100.733 690.169 101.301 689.66C101.875 689.145 102.535 688.772 103.281 688.541C104.027 688.304 104.811 688.186 105.633 688.186C106.178 688.186 106.755 688.251 107.365 688.381C107.98 688.506 108.554 688.737 109.087 689.074C109.626 689.411 110.066 689.894 110.41 690.521C110.753 691.142 110.925 691.95 110.925 692.945V702H108.332V700.136H108.226C108.054 700.479 107.797 700.816 107.453 701.148C107.11 701.479 106.669 701.754 106.131 701.973C105.592 702.192 104.947 702.302 104.195 702.302ZM104.772 700.171C105.506 700.171 106.134 700.026 106.654 699.736C107.181 699.446 107.581 699.067 107.853 698.6C108.131 698.126 108.27 697.62 108.27 697.082V695.324C108.175 695.419 107.992 695.507 107.72 695.59C107.453 695.667 107.149 695.735 106.805 695.794C106.462 695.848 106.128 695.898 105.802 695.945C105.477 695.987 105.204 696.022 104.985 696.052C104.47 696.117 104 696.226 103.574 696.38C103.154 696.534 102.816 696.756 102.562 697.046C102.313 697.33 102.189 697.709 102.189 698.183C102.189 698.839 102.431 699.337 102.917 699.674C103.402 700.005 104.021 700.171 104.772 700.171ZM114.46 702V688.364H117.026V690.53H117.168C117.417 689.796 117.855 689.219 118.482 688.799C119.115 688.373 119.831 688.159 120.63 688.159C120.796 688.159 120.991 688.165 121.216 688.177C121.447 688.189 121.628 688.204 121.758 688.222V690.761C121.651 690.731 121.462 690.699 121.19 690.663C120.917 690.622 120.645 690.601 120.373 690.601C119.746 690.601 119.186 690.734 118.695 691C118.21 691.261 117.825 691.625 117.541 692.092C117.257 692.554 117.115 693.081 117.115 693.673V702H114.46ZM129.444 702.275C128.1 702.275 126.943 701.988 125.973 701.414C125.008 700.834 124.262 700.02 123.735 698.973C123.215 697.919 122.954 696.685 122.954 695.271C122.954 693.874 123.215 692.643 123.735 691.577C124.262 690.512 124.996 689.681 125.937 689.083C126.884 688.485 127.991 688.186 129.257 688.186C130.027 688.186 130.773 688.313 131.495 688.568C132.217 688.822 132.865 689.222 133.439 689.766C134.013 690.311 134.466 691.018 134.797 691.888C135.129 692.752 135.294 693.803 135.294 695.04V695.981H124.454V693.992H132.693C132.693 693.294 132.551 692.675 132.267 692.137C131.983 691.592 131.583 691.163 131.068 690.849C130.559 690.536 129.962 690.379 129.275 690.379C128.529 690.379 127.878 690.562 127.322 690.929C126.772 691.29 126.345 691.764 126.044 692.35C125.748 692.93 125.6 693.56 125.6 694.241V695.794C125.6 696.706 125.759 697.481 126.079 698.12C126.405 698.76 126.857 699.248 127.437 699.585C128.017 699.917 128.695 700.082 129.47 700.082C129.974 700.082 130.432 700.011 130.847 699.869C131.261 699.721 131.619 699.502 131.921 699.212C132.223 698.922 132.453 698.564 132.613 698.138L135.126 698.591C134.924 699.331 134.563 699.979 134.043 700.535C133.528 701.086 132.88 701.515 132.098 701.822C131.323 702.124 130.438 702.275 129.444 702.275ZM144.856 702V688.364H147.51V702H144.856ZM146.196 686.26C145.735 686.26 145.338 686.106 145.007 685.798C144.681 685.484 144.518 685.111 144.518 684.679C144.518 684.241 144.681 683.868 145.007 683.561C145.338 683.247 145.735 683.09 146.196 683.09C146.658 683.09 147.052 683.247 147.377 683.561C147.708 683.868 147.874 684.241 147.874 684.679C147.874 685.111 147.708 685.484 147.377 685.798C147.052 686.106 146.658 686.26 146.196 686.26ZM153.736 693.903V702H151.081V688.364H153.629V690.583H153.798C154.112 689.861 154.603 689.281 155.272 688.843C155.946 688.405 156.796 688.186 157.82 688.186C158.749 688.186 159.563 688.381 160.261 688.772C160.959 689.157 161.501 689.731 161.886 690.494C162.27 691.258 162.463 692.202 162.463 693.326V702H159.808V693.646C159.808 692.658 159.551 691.885 159.036 691.329C158.521 690.767 157.814 690.485 156.914 690.485C156.299 690.485 155.751 690.619 155.272 690.885C154.798 691.151 154.422 691.542 154.144 692.057C153.872 692.566 153.736 693.181 153.736 693.903ZM172.388 688.364V690.494H164.94V688.364H172.388ZM166.937 685.097H169.592V697.996C169.592 698.511 169.669 698.899 169.822 699.159C169.976 699.414 170.175 699.588 170.417 699.683C170.666 699.772 170.935 699.816 171.225 699.816C171.438 699.816 171.625 699.801 171.784 699.772C171.944 699.742 172.069 699.718 172.157 699.701L172.637 701.893C172.483 701.953 172.264 702.012 171.98 702.071C171.696 702.136 171.341 702.172 170.914 702.178C170.216 702.189 169.565 702.065 168.961 701.805C168.358 701.544 167.869 701.142 167.496 700.597C167.124 700.053 166.937 699.369 166.937 698.547V685.097ZM181.055 702.275C179.712 702.275 178.555 701.988 177.584 701.414C176.619 700.834 175.873 700.02 175.347 698.973C174.826 697.919 174.565 696.685 174.565 695.271C174.565 693.874 174.826 692.643 175.347 691.577C175.873 690.512 176.607 689.681 177.548 689.083C178.495 688.485 179.602 688.186 180.869 688.186C181.638 688.186 182.384 688.313 183.106 688.568C183.828 688.822 184.476 689.222 185.05 689.766C185.624 690.311 186.077 691.018 186.408 691.888C186.74 692.752 186.906 693.803 186.906 695.04V695.981H176.066V693.992H184.304C184.304 693.294 184.162 692.675 183.878 692.137C183.594 691.592 183.195 691.163 182.68 690.849C182.171 690.536 181.573 690.379 180.886 690.379C180.141 690.379 179.49 690.562 178.933 690.929C178.383 691.29 177.957 691.764 177.655 692.35C177.359 692.93 177.211 693.56 177.211 694.241V695.794C177.211 696.706 177.371 697.481 177.69 698.12C178.016 698.76 178.469 699.248 179.049 699.585C179.629 699.917 180.306 700.082 181.082 700.082C181.585 700.082 182.044 700.011 182.458 699.869C182.872 699.721 183.23 699.502 183.532 699.212C183.834 698.922 184.065 698.564 184.225 698.138L186.737 698.591C186.536 699.331 186.175 699.979 185.654 700.535C185.139 701.086 184.491 701.515 183.71 701.822C182.934 702.124 182.049 702.275 181.055 702.275ZM189.851 702V688.364H192.417V690.53H192.559C192.807 689.796 193.245 689.219 193.873 688.799C194.506 688.373 195.222 688.159 196.021 688.159C196.187 688.159 196.382 688.165 196.607 688.177C196.838 688.189 197.018 688.204 197.148 688.222V690.761C197.042 690.731 196.853 690.699 196.58 690.663C196.308 690.622 196.036 690.601 195.763 690.601C195.136 690.601 194.577 690.734 194.086 691C193.6 691.261 193.216 691.625 192.931 692.092C192.647 692.554 192.505 693.081 192.505 693.673V702H189.851ZM204.834 702.275C203.491 702.275 202.334 701.988 201.363 701.414C200.398 700.834 199.653 700.02 199.126 698.973C198.605 697.919 198.345 696.685 198.345 695.271C198.345 693.874 198.605 692.643 199.126 691.577C199.653 690.512 200.387 689.681 201.328 689.083C202.275 688.485 203.381 688.186 204.648 688.186C205.417 688.186 206.163 688.313 206.885 688.568C207.607 688.822 208.255 689.222 208.829 689.766C209.404 690.311 209.856 691.018 210.188 691.888C210.519 692.752 210.685 693.803 210.685 695.04V695.981H199.845V693.992H208.084C208.084 693.294 207.942 692.675 207.658 692.137C207.373 691.592 206.974 691.163 206.459 690.849C205.95 690.536 205.352 690.379 204.666 690.379C203.92 690.379 203.269 690.562 202.713 690.929C202.162 691.29 201.736 691.764 201.434 692.35C201.138 692.93 200.99 693.56 200.99 694.241V695.794C200.99 696.706 201.15 697.481 201.47 698.12C201.795 698.76 202.248 699.248 202.828 699.585C203.408 699.917 204.086 700.082 204.861 700.082C205.364 700.082 205.823 700.011 206.237 699.869C206.651 699.721 207.009 699.502 207.311 699.212C207.613 698.922 207.844 698.564 208.004 698.138L210.516 698.591C210.315 699.331 209.954 699.979 209.433 700.535C208.918 701.086 208.27 701.515 207.489 701.822C206.714 702.124 205.829 702.275 204.834 702.275ZM223.849 691.693L221.443 692.119C221.342 691.811 221.182 691.518 220.963 691.24C220.75 690.962 220.46 690.734 220.093 690.556C219.726 690.379 219.268 690.29 218.717 690.29C217.965 690.29 217.338 690.459 216.835 690.796C216.332 691.128 216.08 691.557 216.08 692.083C216.08 692.539 216.249 692.906 216.586 693.184C216.924 693.462 217.468 693.69 218.22 693.868L220.386 694.365C221.641 694.655 222.576 695.102 223.192 695.706C223.807 696.309 224.115 697.094 224.115 698.058C224.115 698.875 223.878 699.603 223.405 700.242C222.937 700.875 222.283 701.373 221.443 701.734C220.608 702.095 219.64 702.275 218.54 702.275C217.013 702.275 215.767 701.95 214.802 701.299C213.837 700.642 213.245 699.71 213.026 698.502L215.592 698.112C215.752 698.78 216.08 699.286 216.578 699.63C217.075 699.967 217.723 700.136 218.522 700.136C219.392 700.136 220.087 699.955 220.608 699.594C221.129 699.227 221.389 698.78 221.389 698.254C221.389 697.827 221.23 697.469 220.91 697.179C220.596 696.889 220.114 696.67 219.463 696.522L217.155 696.016C215.882 695.726 214.941 695.265 214.331 694.631C213.728 693.998 213.426 693.196 213.426 692.225C213.426 691.421 213.651 690.716 214.101 690.113C214.55 689.509 215.172 689.038 215.965 688.701C216.758 688.358 217.667 688.186 218.691 688.186C220.164 688.186 221.324 688.506 222.171 689.145C223.017 689.778 223.576 690.627 223.849 691.693ZM233.399 688.364V690.494H225.95V688.364H233.399ZM227.948 685.097H230.602V697.996C230.602 698.511 230.679 698.899 230.833 699.159C230.987 699.414 231.185 699.588 231.428 699.683C231.677 699.772 231.946 699.816 232.236 699.816C232.449 699.816 232.635 699.801 232.795 699.772C232.955 699.742 233.079 699.718 233.168 699.701L233.647 701.893C233.494 701.953 233.275 702.012 232.991 702.071C232.706 702.136 232.351 702.172 231.925 702.178C231.227 702.189 230.576 702.065 229.972 701.805C229.368 701.544 228.88 701.142 228.507 700.597C228.134 700.053 227.948 699.369 227.948 698.547V685.097ZM236.335 702V688.364H238.99V702H236.335ZM237.676 686.26C237.214 686.26 236.818 686.106 236.486 685.798C236.161 685.484 235.998 685.111 235.998 684.679C235.998 684.241 236.161 683.868 236.486 683.561C236.818 683.247 237.214 683.09 237.676 683.09C238.137 683.09 238.531 683.247 238.857 683.561C239.188 683.868 239.354 684.241 239.354 684.679C239.354 685.111 239.188 685.484 238.857 685.798C238.531 686.106 238.137 686.26 237.676 686.26ZM245.215 693.903V702H242.561V688.364H245.109V690.583H245.277C245.591 689.861 246.082 689.281 246.751 688.843C247.426 688.405 248.275 688.186 249.299 688.186C250.228 688.186 251.042 688.381 251.741 688.772C252.439 689.157 252.98 689.731 253.365 690.494C253.75 691.258 253.942 692.202 253.942 693.326V702H251.288V693.646C251.288 692.658 251.03 691.885 250.515 691.329C250 690.767 249.293 690.485 248.394 690.485C247.778 690.485 247.231 690.619 246.751 690.885C246.278 691.151 245.902 691.542 245.624 692.057C245.351 692.566 245.215 693.181 245.215 693.903ZM263.22 707.398C262.136 707.398 261.204 707.256 260.423 706.972C259.648 706.688 259.014 706.312 258.523 705.844C258.032 705.377 257.665 704.865 257.422 704.308L259.704 703.367C259.864 703.628 260.077 703.903 260.343 704.193C260.615 704.489 260.982 704.74 261.444 704.947C261.912 705.155 262.512 705.258 263.246 705.258C264.252 705.258 265.084 705.013 265.741 704.521C266.398 704.036 266.726 703.261 266.726 702.195V699.514H266.558C266.398 699.804 266.167 700.127 265.865 700.482C265.569 700.837 265.161 701.145 264.64 701.405C264.119 701.666 263.441 701.796 262.607 701.796C261.53 701.796 260.559 701.544 259.695 701.041C258.837 700.532 258.156 699.783 257.653 698.795C257.156 697.801 256.907 696.579 256.907 695.129C256.907 693.679 257.153 692.436 257.644 691.4C258.141 690.364 258.822 689.571 259.686 689.021C260.55 688.464 261.53 688.186 262.625 688.186C263.471 688.186 264.155 688.328 264.676 688.612C265.196 688.89 265.602 689.216 265.892 689.589C266.188 689.962 266.416 690.29 266.575 690.574H266.771V688.364H269.372V702.302C269.372 703.474 269.1 704.435 268.555 705.187C268.011 705.939 267.274 706.495 266.345 706.856C265.421 707.217 264.38 707.398 263.22 707.398ZM263.193 699.594C263.956 699.594 264.602 699.417 265.128 699.061C265.661 698.7 266.063 698.185 266.336 697.517C266.614 696.842 266.753 696.034 266.753 695.093C266.753 694.176 266.617 693.368 266.345 692.669C266.072 691.971 265.673 691.426 265.146 691.036C264.619 690.639 263.968 690.441 263.193 690.441C262.394 690.441 261.728 690.648 261.195 691.062C260.663 691.471 260.26 692.027 259.988 692.732C259.722 693.436 259.589 694.223 259.589 695.093C259.589 695.987 259.725 696.771 259.997 697.446C260.269 698.12 260.672 698.647 261.204 699.026C261.743 699.405 262.406 699.594 263.193 699.594ZM292.53 688.364V690.494H285.081V688.364H292.53ZM287.079 685.097H289.733V697.996C289.733 698.511 289.81 698.899 289.964 699.159C290.118 699.414 290.316 699.588 290.559 699.683C290.807 699.772 291.077 699.816 291.367 699.816C291.58 699.816 291.766 699.801 291.926 699.772C292.086 699.742 292.21 699.718 292.299 699.701L292.778 701.893C292.624 701.953 292.405 702.012 292.121 702.071C291.837 702.136 291.482 702.172 291.056 702.178C290.358 702.189 289.707 702.065 289.103 701.805C288.499 701.544 288.011 701.142 287.638 700.597C287.265 700.053 287.079 699.369 287.079 698.547V685.097ZM298.414 693.903V702H295.759V683.818H298.378V690.583H298.547C298.866 689.849 299.355 689.266 300.012 688.834C300.669 688.402 301.527 688.186 302.586 688.186C303.521 688.186 304.338 688.378 305.036 688.763C305.741 689.148 306.285 689.722 306.67 690.485C307.061 691.243 307.256 692.19 307.256 693.326V702H304.601V693.646C304.601 692.646 304.344 691.87 303.829 691.32C303.314 690.764 302.598 690.485 301.681 690.485C301.053 690.485 300.491 690.619 299.994 690.885C299.503 691.151 299.115 691.542 298.831 692.057C298.553 692.566 298.414 693.181 298.414 693.903ZM310.798 702V688.364H313.453V702H310.798ZM312.139 686.26C311.677 686.26 311.28 686.106 310.949 685.798C310.624 685.484 310.461 685.111 310.461 684.679C310.461 684.241 310.624 683.868 310.949 683.561C311.28 683.247 311.677 683.09 312.139 683.09C312.6 683.09 312.994 683.247 313.319 683.561C313.651 683.868 313.817 684.241 313.817 684.679C313.817 685.111 313.651 685.484 313.319 685.798C312.994 686.106 312.6 686.26 312.139 686.26ZM319.678 693.903V702H317.024V688.364H319.572V690.583H319.74C320.054 689.861 320.545 689.281 321.214 688.843C321.889 688.405 322.738 688.186 323.762 688.186C324.691 688.186 325.505 688.381 326.203 688.772C326.902 689.157 327.443 689.731 327.828 690.494C328.213 691.258 328.405 692.202 328.405 693.326V702H325.751V693.646C325.751 692.658 325.493 691.885 324.978 691.329C324.463 690.767 323.756 690.485 322.856 690.485C322.241 690.485 321.693 690.619 321.214 690.885C320.741 691.151 320.365 691.542 320.087 692.057C319.814 692.566 319.678 693.181 319.678 693.903ZM337.682 707.398C336.599 707.398 335.667 707.256 334.886 706.972C334.111 706.688 333.477 706.312 332.986 705.844C332.495 705.377 332.128 704.865 331.885 704.308L334.167 703.367C334.327 703.628 334.54 703.903 334.806 704.193C335.078 704.489 335.445 704.74 335.907 704.947C336.374 705.155 336.975 705.258 337.709 705.258C338.715 705.258 339.547 705.013 340.204 704.521C340.861 704.036 341.189 703.261 341.189 702.195V699.514H341.021C340.861 699.804 340.63 700.127 340.328 700.482C340.032 700.837 339.624 701.145 339.103 701.405C338.582 701.666 337.904 701.796 337.07 701.796C335.993 701.796 335.022 701.544 334.158 701.041C333.3 700.532 332.619 699.783 332.116 698.795C331.619 697.801 331.37 696.579 331.37 695.129C331.37 693.679 331.616 692.436 332.107 691.4C332.604 690.364 333.285 689.571 334.149 689.021C335.013 688.464 335.993 688.186 337.088 688.186C337.934 688.186 338.618 688.328 339.138 688.612C339.659 688.89 340.065 689.216 340.355 689.589C340.651 689.962 340.878 690.29 341.038 690.574H341.234V688.364H343.835V702.302C343.835 703.474 343.563 704.435 343.018 705.187C342.474 705.939 341.737 706.495 340.807 706.856C339.884 707.217 338.842 707.398 337.682 707.398ZM337.656 699.594C338.419 699.594 339.064 699.417 339.591 699.061C340.124 698.7 340.526 698.185 340.799 697.517C341.077 696.842 341.216 696.034 341.216 695.093C341.216 694.176 341.08 693.368 340.807 692.669C340.535 691.971 340.136 691.426 339.609 691.036C339.082 690.639 338.431 690.441 337.656 690.441C336.857 690.441 336.191 690.648 335.658 691.062C335.126 691.471 334.723 692.027 334.451 692.732C334.185 693.436 334.051 694.223 334.051 695.093C334.051 695.987 334.188 696.771 334.46 697.446C334.732 698.12 335.134 698.647 335.667 699.026C336.206 699.405 336.869 699.594 337.656 699.594ZM357.613 691.693L355.207 692.119C355.107 691.811 354.947 691.518 354.728 691.24C354.515 690.962 354.225 690.734 353.858 690.556C353.491 690.379 353.032 690.29 352.482 690.29C351.73 690.29 351.103 690.459 350.6 690.796C350.097 691.128 349.845 691.557 349.845 692.083C349.845 692.539 350.014 692.906 350.351 693.184C350.688 693.462 351.233 693.69 351.985 693.868L354.151 694.365C355.406 694.655 356.341 695.102 356.956 695.706C357.572 696.309 357.88 697.094 357.88 698.058C357.88 698.875 357.643 699.603 357.169 700.242C356.702 700.875 356.048 701.373 355.207 701.734C354.373 702.095 353.405 702.275 352.304 702.275C350.777 702.275 349.531 701.95 348.567 701.299C347.602 700.642 347.01 699.71 346.791 698.502L349.357 698.112C349.517 698.78 349.845 699.286 350.342 699.63C350.839 699.967 351.487 700.136 352.286 700.136C353.157 700.136 353.852 699.955 354.373 699.594C354.894 699.227 355.154 698.78 355.154 698.254C355.154 697.827 354.994 697.469 354.675 697.179C354.361 696.889 353.879 696.67 353.228 696.522L350.919 696.016C349.647 695.726 348.706 695.265 348.096 694.631C347.492 693.998 347.191 693.196 347.191 692.225C347.191 691.421 347.416 690.716 347.865 690.113C348.315 689.509 348.937 689.038 349.73 688.701C350.523 688.358 351.431 688.186 352.455 688.186C353.929 688.186 355.089 688.506 355.935 689.145C356.782 689.778 357.341 690.627 357.613 691.693Z" fill="#928282"/>
<path d="M120.741 732L116.728 718.364H119.471L122.143 728.378H122.277L124.958 718.364H127.701L130.364 728.333H130.498L133.152 718.364H135.895L131.891 732H129.184L126.414 722.154H126.21L123.44 732H120.741ZM138.414 732V718.364H141.069V732H138.414ZM139.755 716.26C139.293 716.26 138.897 716.106 138.565 715.798C138.24 715.484 138.077 715.111 138.077 714.679C138.077 714.241 138.24 713.868 138.565 713.561C138.897 713.247 139.293 713.09 139.755 713.09C140.217 713.09 140.61 713.247 140.936 713.561C141.267 713.868 141.433 714.241 141.433 714.679C141.433 715.111 141.267 715.484 140.936 715.798C140.61 716.106 140.217 716.26 139.755 716.26ZM151.005 718.364V720.494H143.557V718.364H151.005ZM145.554 715.097H148.209V727.996C148.209 728.511 148.286 728.899 148.44 729.159C148.594 729.414 148.792 729.588 149.034 729.683C149.283 729.772 149.552 729.816 149.842 729.816C150.055 729.816 150.242 729.801 150.402 729.772C150.561 729.742 150.686 729.718 150.775 729.701L151.254 731.893C151.1 731.953 150.881 732.012 150.597 732.071C150.313 732.136 149.958 732.172 149.532 732.178C148.833 732.189 148.182 732.065 147.578 731.805C146.975 731.544 146.487 731.142 146.114 730.597C145.741 730.053 145.554 729.369 145.554 728.547V715.097ZM156.889 723.903V732H154.235V713.818H156.854V720.583H157.022C157.342 719.849 157.83 719.266 158.487 718.834C159.144 718.402 160.002 718.186 161.062 718.186C161.997 718.186 162.814 718.378 163.512 718.763C164.216 719.148 164.761 719.722 165.146 720.485C165.536 721.243 165.731 722.19 165.731 723.326V732H163.077V723.646C163.077 722.646 162.82 721.87 162.305 721.32C161.79 720.764 161.074 720.485 160.156 720.485C159.529 720.485 158.967 720.619 158.469 720.885C157.978 721.151 157.59 721.542 157.306 722.057C157.028 722.566 156.889 723.181 156.889 723.903ZM178.544 723.903V732H175.89V718.364H178.438V720.583H178.607C178.92 719.861 179.411 719.281 180.08 718.843C180.755 718.405 181.604 718.186 182.628 718.186C183.557 718.186 184.371 718.381 185.07 718.772C185.768 719.157 186.31 719.731 186.694 720.494C187.079 721.258 187.271 722.202 187.271 723.326V732H184.617V723.646C184.617 722.658 184.359 721.885 183.844 721.329C183.33 720.767 182.622 720.485 181.723 720.485C181.107 720.485 180.56 720.619 180.08 720.885C179.607 721.151 179.231 721.542 178.953 722.057C178.681 722.566 178.544 723.181 178.544 723.903ZM196.708 732.275C195.365 732.275 194.208 731.988 193.237 731.414C192.272 730.834 191.527 730.02 191 728.973C190.479 727.919 190.219 726.685 190.219 725.271C190.219 723.874 190.479 722.643 191 721.577C191.527 720.512 192.261 719.681 193.202 719.083C194.149 718.485 195.255 718.186 196.522 718.186C197.291 718.186 198.037 718.313 198.759 718.568C199.481 718.822 200.129 719.222 200.703 719.766C201.278 720.311 201.73 721.018 202.062 721.888C202.393 722.752 202.559 723.803 202.559 725.04V725.981H191.719V723.992H199.958C199.958 723.294 199.816 722.675 199.532 722.137C199.248 721.592 198.848 721.163 198.333 720.849C197.824 720.536 197.226 720.379 196.54 720.379C195.794 720.379 195.143 720.562 194.587 720.929C194.036 721.29 193.61 721.764 193.308 722.35C193.012 722.93 192.864 723.56 192.864 724.241V725.794C192.864 726.706 193.024 727.481 193.344 728.12C193.669 728.76 194.122 729.248 194.702 729.585C195.282 729.917 195.96 730.082 196.735 730.082C197.238 730.082 197.697 730.011 198.111 729.869C198.525 729.721 198.884 729.502 199.185 729.212C199.487 728.922 199.718 728.564 199.878 728.138L202.39 728.591C202.189 729.331 201.828 729.979 201.307 730.535C200.792 731.086 200.144 731.515 199.363 731.822C198.588 732.124 197.703 732.275 196.708 732.275ZM208.436 732L204.423 718.364H207.167L209.839 728.378H209.972L212.653 718.364H215.396L218.06 728.333H218.193L220.847 718.364H223.591L219.587 732H216.879L214.109 722.154H213.905L211.135 732H208.436ZM239.216 718.364V720.494H231.51V718.364H239.216ZM233.623 732V716.783C233.623 715.931 233.809 715.224 234.182 714.662C234.555 714.093 235.049 713.67 235.664 713.392C236.28 713.108 236.949 712.966 237.671 712.966C238.203 712.966 238.659 713.01 239.038 713.099C239.417 713.182 239.698 713.259 239.881 713.33L239.26 715.478C239.136 715.443 238.976 715.401 238.781 715.354C238.585 715.301 238.348 715.274 238.07 715.274C237.425 715.274 236.964 715.434 236.685 715.754C236.413 716.073 236.277 716.535 236.277 717.138V732H233.623ZM241.954 732V718.364H244.52V720.53H244.662C244.911 719.796 245.349 719.219 245.976 718.799C246.609 718.373 247.325 718.159 248.124 718.159C248.29 718.159 248.485 718.165 248.71 718.177C248.941 718.189 249.122 718.204 249.252 718.222V720.761C249.145 720.731 248.956 720.699 248.684 720.663C248.412 720.622 248.139 720.601 247.867 720.601C247.24 720.601 246.68 720.734 246.189 721C245.704 721.261 245.319 721.625 245.035 722.092C244.751 722.554 244.609 723.081 244.609 723.673V732H241.954ZM251.549 732V718.364H254.204V732H251.549ZM252.89 716.26C252.428 716.26 252.031 716.106 251.7 715.798C251.374 715.484 251.212 715.111 251.212 714.679C251.212 714.241 251.374 713.868 251.7 713.561C252.031 713.247 252.428 713.09 252.89 713.09C253.351 713.09 253.745 713.247 254.07 713.561C254.402 713.868 254.568 714.241 254.568 714.679C254.568 715.111 254.402 715.484 254.07 715.798C253.745 716.106 253.351 716.26 252.89 716.26ZM263.652 732.275C262.308 732.275 261.151 731.988 260.181 731.414C259.216 730.834 258.47 730.02 257.943 728.973C257.423 727.919 257.162 726.685 257.162 725.271C257.162 723.874 257.423 722.643 257.943 721.577C258.47 720.512 259.204 719.681 260.145 719.083C261.092 718.485 262.199 718.186 263.465 718.186C264.235 718.186 264.981 718.313 265.703 718.568C266.425 718.822 267.073 719.222 267.647 719.766C268.221 720.311 268.674 721.018 269.005 721.888C269.337 722.752 269.502 723.803 269.502 725.04V725.981H258.662V723.992H266.901C266.901 723.294 266.759 722.675 266.475 722.137C266.191 721.592 265.791 721.163 265.276 720.849C264.767 720.536 264.17 720.379 263.483 720.379C262.737 720.379 262.086 720.562 261.53 720.929C260.98 721.29 260.553 721.764 260.252 722.35C259.956 722.93 259.808 723.56 259.808 724.241V725.794C259.808 726.706 259.968 727.481 260.287 728.12C260.613 728.76 261.065 729.248 261.645 729.585C262.225 729.917 262.903 730.082 263.678 730.082C264.182 730.082 264.64 730.011 265.055 729.869C265.469 729.721 265.827 729.502 266.129 729.212C266.431 728.922 266.661 728.564 266.821 728.138L269.334 728.591C269.132 729.331 268.771 729.979 268.251 730.535C267.736 731.086 267.088 731.515 266.306 731.822C265.531 732.124 264.646 732.275 263.652 732.275ZM275.102 723.903V732H272.448V718.364H274.995V720.583H275.164C275.478 719.861 275.969 719.281 276.638 718.843C277.313 718.405 278.162 718.186 279.186 718.186C280.115 718.186 280.929 718.381 281.627 718.772C282.326 719.157 282.867 719.731 283.252 720.494C283.637 721.258 283.829 722.202 283.829 723.326V732H281.174V723.646C281.174 722.658 280.917 721.885 280.402 721.329C279.887 720.767 279.18 720.485 278.28 720.485C277.665 720.485 277.117 720.619 276.638 720.885C276.164 721.151 275.789 721.542 275.51 722.057C275.238 722.566 275.102 723.181 275.102 723.903ZM292.494 732.266C291.393 732.266 290.41 731.985 289.546 731.423C288.688 730.855 288.013 730.047 287.522 728.999C287.037 727.946 286.794 726.682 286.794 725.208C286.794 723.735 287.04 722.474 287.531 721.426C288.028 720.379 288.709 719.577 289.573 719.021C290.437 718.464 291.417 718.186 292.511 718.186C293.358 718.186 294.038 718.328 294.553 718.612C295.074 718.89 295.477 719.216 295.761 719.589C296.051 719.962 296.276 720.29 296.435 720.574H296.595V713.818H299.25V732H296.657V729.878H296.435C296.276 730.168 296.045 730.5 295.743 730.873C295.447 731.245 295.039 731.571 294.518 731.849C293.997 732.127 293.322 732.266 292.494 732.266ZM293.08 730.002C293.843 730.002 294.488 729.801 295.015 729.399C295.548 728.99 295.95 728.425 296.222 727.703C296.501 726.981 296.64 726.141 296.64 725.182C296.64 724.235 296.504 723.406 296.231 722.696C295.959 721.986 295.56 721.432 295.033 721.036C294.506 720.639 293.855 720.441 293.08 720.441C292.281 720.441 291.615 720.648 291.082 721.062C290.549 721.477 290.147 722.042 289.875 722.758C289.608 723.474 289.475 724.282 289.475 725.182C289.475 726.093 289.611 726.913 289.884 727.641C290.156 728.369 290.558 728.946 291.091 729.372C291.63 729.792 292.292 730.002 293.08 730.002ZM313.257 721.693L310.851 722.119C310.75 721.811 310.59 721.518 310.371 721.24C310.158 720.962 309.868 720.734 309.501 720.556C309.134 720.379 308.676 720.29 308.125 720.29C307.374 720.29 306.746 720.459 306.243 720.796C305.74 721.128 305.489 721.557 305.489 722.083C305.489 722.539 305.657 722.906 305.995 723.184C306.332 723.462 306.877 723.69 307.628 723.868L309.794 724.365C311.049 724.655 311.984 725.102 312.6 725.706C313.215 726.309 313.523 727.094 313.523 728.058C313.523 728.875 313.286 729.603 312.813 730.242C312.345 730.875 311.691 731.373 310.851 731.734C310.016 732.095 309.049 732.275 307.948 732.275C306.421 732.275 305.175 731.95 304.21 731.299C303.246 730.642 302.654 729.71 302.435 728.502L305 728.112C305.16 728.78 305.489 729.286 305.986 729.63C306.483 729.967 307.131 730.136 307.93 730.136C308.8 730.136 309.496 729.955 310.016 729.594C310.537 729.227 310.798 728.78 310.798 728.254C310.798 727.827 310.638 727.469 310.318 727.179C310.004 726.889 309.522 726.67 308.871 726.522L306.563 726.016C305.29 725.726 304.349 725.265 303.74 724.631C303.136 723.998 302.834 723.196 302.834 722.225C302.834 721.421 303.059 720.716 303.509 720.113C303.959 719.509 304.58 719.038 305.373 718.701C306.166 718.358 307.075 718.186 308.099 718.186C309.572 718.186 310.732 718.506 311.579 719.145C312.425 719.778 312.984 720.627 313.257 721.693Z" fill="#928282"/>
<path fill-rule="evenodd" clip-rule="evenodd" d="M-21.5 105C46.7072 105 102 48.8117 102 -20.5C102 -89.8117 46.7072 -146 -21.5 -146C-89.7072 -146 -145 -89.8117 -145 -20.5C-145 48.8117 -89.7072 105 -21.5 105ZM-21.5 102.926C45.5798 102.926 99.9587 47.6661 99.9587 -20.5C99.9587 -88.6661 45.5798 -143.926 -21.5 -143.926C-88.5798 -143.926 -142.959 -88.6661 -142.959 -20.5C-142.959 47.6661 -88.5798 102.926 -21.5 102.926Z" fill="#FFC4C4"/>
<path fill-rule="evenodd" clip-rule="evenodd" d="M17.5 172C98.962 172 165 105.962 165 24.5C165 -56.962 98.962 -123 17.5 -123C-63.962 -123 -130 -56.962 -130 24.5C-130 105.962 -63.962 172 17.5 172ZM17.5 169.562C97.6155 169.562 162.562 104.616 162.562 24.5C162.562 -55.6155 97.6155 -120.562 17.5 -120.562C-62.6155 -120.562 -127.562 -55.6155 -127.562 24.5C-127.562 104.616 -62.6155 169.562 17.5 169.562Z" fill="#FFC4C4"/>
<path fill-rule="evenodd" clip-rule="evenodd" d="M39.5 252C145.263 252 231 166.263 231 60.5C231 -45.2625 145.263 -131 39.5 -131C-66.2625 -131 -152 -45.2625 -152 60.5C-152 166.263 -66.2625 252 39.5 252ZM39.5 248.835C143.514 248.835 227.835 164.514 227.835 60.5C227.835 -43.5144 143.514 -127.835 39.5 -127.835C-64.5144 -127.835 -148.835 -43.5144 -148.835 60.5C-148.835 164.514 -64.5144 248.835 39.5 248.835Z" fill="#FFC4C4"/>
<g filter="url(#filter0_i_10_5)">
<path fill-rule="evenodd" clip-rule="evenodd" d="M95.0983 182.86C64.6684 195.978 50.6343 231.28 63.7523 261.71L92.7955 329.082C105.914 359.512 141.216 373.546 171.646 360.428L202.354 347.19L252.994 367.321C260.692 370.382 269.414 366.622 272.474 358.924L292.605 308.284L318.037 297.321C348.467 284.202 362.501 248.9 349.383 218.47L320.34 151.098C307.222 120.668 271.919 106.634 241.489 119.752L95.0983 182.86Z" fill="#FF318C"/>
</g>
<g filter="url(#filter1_d_10_5)">
<path d="M253.351 210.825C258.598 223.401 256.707 239.341 247.748 258.23C243.678 266.802 238.746 274.938 233.029 282.513C232.651 282.987 232.158 283.359 231.598 283.592C231.038 283.826 230.427 283.915 229.824 283.85C227.645 283.601 176.907 277.41 164.579 247.86C162.42 242.685 161.944 236.961 163.219 231.5C164.493 226.039 167.454 221.117 171.681 217.432C175.908 213.747 181.187 211.486 186.771 210.968C192.355 210.45 197.96 211.703 202.793 214.547C204.171 209.112 207.224 204.247 211.52 200.643C215.817 197.039 221.138 194.878 226.731 194.466C232.323 194.054 237.904 195.413 242.682 198.349C247.459 201.285 251.192 205.65 253.351 210.825Z" fill="#FFE3EF"/>
</g>
<g filter="url(#filter2_i_10_5)">
<path d="M253.351 210.825C258.598 223.401 256.707 239.341 247.748 258.23C243.678 266.802 238.746 274.938 233.029 282.513C232.651 282.987 232.158 283.359 231.598 283.592C231.038 283.826 230.427 283.915 229.824 283.85C227.645 283.601 176.907 277.41 164.579 247.86C162.42 242.685 161.944 236.961 163.219 231.5C164.493 226.039 167.454 221.117 171.681 217.432C175.908 213.747 181.187 211.486 186.771 210.968C192.355 210.45 197.96 211.703 202.793 214.547C204.171 209.112 207.224 204.247 211.52 200.643C215.817 197.039 221.138 194.878 226.731 194.466C232.323 194.054 237.904 195.413 242.682 198.349C247.459 201.285 251.192 205.65 253.351 210.825Z" fill="url(#paint1_linear_10_5)"/>
</g>
<path fill-rule="evenodd" clip-rule="evenodd" d="M61.7484 272.218C38.0737 291.821 27.123 310.267 34.0542 323.632C49.2055 352.847 144.067 346.719 245.934 309.945C347.801 273.17 418.097 219.674 402.946 190.459C395.906 176.884 371.657 170.939 337.492 172.154C337.191 172.603 336.865 173.06 336.514 173.524C369.593 172.478 393.041 178.34 399.897 191.559C414.798 220.292 345.663 272.903 245.48 309.07C145.297 345.237 52.0036 351.264 37.1027 322.531C30.4773 309.756 40.4652 292.26 62.4089 273.588C62.3413 273.486 62.2773 273.382 62.2169 273.277C62.0221 272.937 61.8661 272.585 61.7484 272.218Z" fill="white"/>
<path d="M297.59 146.625L302 137L306.375 146.625L316 151L306.375 155.41L302 165L297.59 155.41L288 151L297.59 146.625Z" fill="white"/>
<path d="M129.758 333.135L133.488 321.129L140.104 331.799L152.105 335.488L141.44 342.145L137.745 354.105L131.093 343.481L119.128 339.745L129.758 333.135Z" fill="white"/>
<path d="M160.81 329.337L162.928 320.385L168.295 327.84L177.241 329.928L169.792 335.325L167.698 344.241L162.307 336.822L153.385 334.698L160.81 329.337Z" fill="white"/>
<path d="M340.536 336.755C336.543 336.992 332.561 342.516 332.561 342.516C332.561 342.516 330.667 335.97 326.999 334.4C317.916 330.531 312.081 340.944 312.226 349.476C312.44 362.076 321.779 374.961 324.947 378.994C325.573 379.791 326.546 379.961 327.418 379.424C331.775 376.701 344.916 367.728 349.363 355.938C352.366 347.954 350.393 336.183 340.536 336.755Z" fill="white"/>
<mask id="mask0_10_5" style="mask-type:luminance" maskUnits="userSpaceOnUse" x="348" y="366" width="29" height="47">
<path d="M354.132 372.074C350.283 373.161 349.858 376.561 350.916 380.308C352.833 387.093 362.081 391.141 366.528 391.433C370.165 388.858 375.929 380.569 374.013 373.785C372.954 370.037 370.472 367.459 366.964 368.45C364.815 369.057 362.534 372.898 361.877 374.967C360.236 373.547 356.281 371.467 354.132 372.074Z" fill="#555555" stroke="white" stroke-width="4" stroke-linecap="round" stroke-linejoin="round"/>
<path d="M366.528 391.433C364.9 393.026 362.668 396.161 363.619 399.529C364.57 402.897 373.922 399.217 374.873 402.585C375.825 405.953 365.647 410.387 365.647 410.387" stroke="white" stroke-width="4" stroke-linecap="round" stroke-linejoin="round"/>
</mask>
<g mask="url(#mask0_10_5)">
<path d="M336.365 372.936L382.558 359.889L395.605 406.082L349.412 419.129L336.365 372.936Z" fill="white"/>
</g>
</g>
<defs>
<filter id="filter0_i_10_5" x="58.8354" y="114.835" width="301.464" height="273.551" filterUnits="userSpaceOnUse" color-interpolation-filters="sRGB">
<feFlood flood-opacity="0" result="BackgroundImageFix"/>
<feBlend mode="normal" in="SourceGraphic" in2="BackgroundImageFix" result="shape"/>
<feColorMatrix in="SourceAlpha" type="matrix" values="0 0 0 0 0 0 0 0 0 0 0 0 0 0 0 0 0 0 127 0" result="hardAlpha"/>
<feOffset dx="6" dy="20"/>
<feGaussianBlur stdDeviation="30"/>
<feComposite in2="hardAlpha" operator="arithmetic" k2="-1" k3="1"/>
<feColorMatrix type="matrix" values="0 0 0 0 1 0 0 0 0 1 0 0 0 0 1 0 0 0 0.97 0"/>
<feBlend mode="normal" in2="shape" result="effect1_innerShadow_10_5"/>
</filter>
<filter id="filter1_d_10_5" x="142.52" y="178.394" width="133.728" height="129.477" filterUnits="userSpaceOnUse" color-interpolation-filters="sRGB">
<feFlood flood-opacity="0" result="BackgroundImageFix"/>
<feColorMatrix in="SourceAlpha" type="matrix" values="0 0 0 0 0 0 0 0 0 0 0 0 0 0 0 0 0 0 127 0" result="hardAlpha"/>
<feOffset dy="4"/>
<feGaussianBlur stdDeviation="10"/>
<feComposite in2="hardAlpha" operator="out"/>
<feColorMatrix type="matrix" values="0 0 0 0 0 0 0 0 0 0 0 0 0 0 0 0 0 0 0.25 0"/>
<feBlend mode="normal" in2="BackgroundImageFix" result="effect1_dropShadow_10_5"/>
<feBlend mode="normal" in="SourceGraphic" in2="effect1_dropShadow_10_5" result="shape"/>
</filter>
<filter id="filter2_i_10_5" x="162.52" y="194.394" width="97.728" height="102.477" filterUnits="userSpaceOnUse" color-interpolation-filters="sRGB">
<feFlood flood-opacity="0" result="BackgroundImageFix"/>
<feBlend mode="normal" in="SourceGraphic" in2="BackgroundImageFix" result="shape"/>
<feColorMatrix in="SourceAlpha" type="matrix" values="0 0 0 0 0 0 0 0 0 0 0 0 0 0 0 0 0 0 127 0" result="hardAlpha"/>
<feOffset dx="4" dy="13"/>
<feGaussianBlur stdDeviation="10"/>
<feComposite in2="hardAlpha" operator="arithmetic" k2="-1" k3="1"/>
<feColorMatrix type="matrix" values="0 0 0 0 0.984314 0 0 0 0 0.807843 0 0 0 0 0.886275 0 0 0 1 0"/>
<feBlend mode="normal" in2="shape" result="effect1_innerShadow_10_5"/>
</filter>
<linearGradient id="paint0_linear_10_5" x1="215" y1="0" x2="215" y2="932" gradientUnits="userSpaceOnUse">
<stop offset="0.0690928" stop-color="#FFAEAD"/>
<stop offset="1" stop-color="#FFFDFE"/>
</linearGradient>
<linearGradient id="paint1_linear_10_5" x1="198.678" y1="204.684" x2="231.598" y2="283.592" gradientUnits="userSpaceOnUse">
<stop stop-color="#FDF9FC"/>
<stop offset="1" stop-color="#FBC7DE"/>
</linearGradient>
<clipPath id="clip0_10_5">
<rect width="430" height="932" fill="white"/>
</clipPath>
</defs>
</svg>
