<svg width="430" height="932" viewBox="0 0 430 932" fill="none" xmlns="http://www.w3.org/2000/svg">
<g clip-path="url(#clip0_14_155)">
<rect width="430" height="932" fill="url(#paint0_linear_14_155)"/>
<ellipse cx="216" cy="466" rx="128" ry="31" fill="#92D7FF"/>
<path d="M152.027 642V602H179.332V609.852H161.695V618.055H177.594V625.926H161.695V642H152.027ZM184.2 642V612H193.751V642H184.2ZM188.985 608.504C187.644 608.504 186.492 608.061 185.528 607.176C184.565 606.277 184.083 605.197 184.083 603.934C184.083 602.684 184.565 601.616 185.528 600.73C186.492 599.832 187.644 599.383 188.985 599.383C190.34 599.383 191.492 599.832 192.442 600.73C193.406 601.616 193.888 602.684 193.888 603.934C193.888 605.197 193.406 606.277 192.442 607.176C191.492 608.061 190.34 608.504 188.985 608.504ZM209.381 624.891V642H199.83V612H208.912V617.508H209.244C209.908 615.672 211.041 614.233 212.643 613.191C214.244 612.137 216.152 611.609 218.365 611.609C220.475 611.609 222.304 612.085 223.854 613.035C225.416 613.973 226.627 615.288 227.486 616.98C228.359 618.66 228.788 620.626 228.775 622.879V642H219.225V624.754C219.238 623.087 218.814 621.785 217.955 620.848C217.109 619.91 215.93 619.441 214.42 619.441C213.417 619.441 212.532 619.663 211.764 620.105C211.008 620.535 210.423 621.154 210.006 621.961C209.602 622.768 209.394 623.745 209.381 624.891ZM245.646 642.43C243.432 642.43 241.42 641.857 239.61 640.711C237.8 639.565 236.355 637.846 235.274 635.555C234.194 633.263 233.653 630.418 233.653 627.02C233.653 623.491 234.213 620.587 235.333 618.309C236.453 616.03 237.918 614.344 239.728 613.25C241.55 612.156 243.51 611.609 245.606 611.609C247.182 611.609 248.53 611.883 249.649 612.43C250.769 612.964 251.694 613.654 252.423 614.5C253.152 615.346 253.705 616.225 254.083 617.137H254.278V602H263.829V642H254.376V637.137H254.083C253.679 638.061 253.106 638.927 252.364 639.734C251.622 640.542 250.691 641.193 249.571 641.687C248.465 642.182 247.156 642.43 245.646 642.43ZM248.966 634.988C250.125 634.988 251.114 634.663 251.935 634.012C252.755 633.348 253.386 632.417 253.829 631.219C254.272 630.021 254.493 628.615 254.493 627C254.493 625.359 254.272 623.947 253.829 622.762C253.399 621.577 252.768 620.665 251.935 620.027C251.114 619.389 250.125 619.07 248.966 619.07C247.781 619.07 246.778 619.396 245.958 620.047C245.138 620.698 244.513 621.616 244.083 622.801C243.666 623.986 243.458 625.385 243.458 627C243.458 628.615 243.673 630.021 244.103 631.219C244.532 632.417 245.151 633.348 245.958 634.012C246.778 634.663 247.781 634.988 248.966 634.988Z" fill="black"/>
<path d="M48.9975 689V670.818H60.2724V673.18H51.7408V678.719H59.4645V681.072H51.7408V689H48.9975ZM63.4329 689V675.364H66.0874V689H63.4329ZM64.7734 673.26C64.3118 673.26 63.9152 673.106 63.5838 672.798C63.2583 672.484 63.0955 672.111 63.0955 671.679C63.0955 671.241 63.2583 670.868 63.5838 670.561C63.9152 670.247 64.3118 670.09 64.7734 670.09C65.2351 670.09 65.6287 670.247 65.9542 670.561C66.2856 670.868 66.4513 671.241 66.4513 671.679C66.4513 672.111 66.2856 672.484 65.9542 672.798C65.6287 673.106 65.2351 673.26 64.7734 673.26ZM72.3129 680.903V689H69.6585V675.364H72.2064V677.583H72.3751C72.6888 676.861 73.18 676.281 73.8488 675.843C74.5235 675.405 75.3728 675.186 76.3968 675.186C77.326 675.186 78.1398 675.381 78.8382 675.772C79.5365 676.157 80.0781 676.731 80.4628 677.494C80.8475 678.258 81.0399 679.202 81.0399 680.326V689H78.3854V680.646C78.3854 679.658 78.1279 678.885 77.613 678.329C77.0981 677.767 76.3908 677.485 75.4912 677.485C74.8757 677.485 74.3282 677.619 73.8488 677.885C73.3753 678.151 72.9995 678.542 72.7213 679.057C72.4491 679.566 72.3129 680.181 72.3129 680.903ZM89.7046 689.266C88.6038 689.266 87.6213 688.985 86.7572 688.423C85.899 687.855 85.2243 687.047 84.733 685.999C84.2477 684.946 84.0051 683.682 84.0051 682.208C84.0051 680.735 84.2507 679.474 84.7419 678.426C85.2391 677.379 85.9197 676.577 86.7838 676.021C87.6479 675.464 88.6275 675.186 89.7224 675.186C90.5687 675.186 91.2494 675.328 91.7643 675.612C92.2851 675.89 92.6876 676.216 92.9717 676.589C93.2617 676.962 93.4866 677.29 93.6464 677.574H93.8062V670.818H96.4607V689H93.8683V686.878H93.6464C93.4866 687.168 93.2558 687.5 92.9539 687.873C92.658 688.245 92.2496 688.571 91.7288 688.849C91.2079 689.127 90.5332 689.266 89.7046 689.266ZM90.2906 687.002C91.0541 687.002 91.6992 686.801 92.2259 686.399C92.7586 685.99 93.1611 685.425 93.4333 684.703C93.7115 683.981 93.8506 683.141 93.8506 682.182C93.8506 681.235 93.7145 680.406 93.4422 679.696C93.17 678.986 92.7704 678.432 92.2437 678.036C91.7169 677.639 91.0659 677.441 90.2906 677.441C89.4916 677.441 88.8257 677.648 88.2931 678.062C87.7604 678.477 87.3579 679.042 87.0857 679.758C86.8193 680.474 86.6862 681.282 86.6862 682.182C86.6862 683.093 86.8223 683.913 87.0945 684.641C87.3668 685.369 87.7693 685.946 88.3019 686.372C88.8405 686.792 89.5034 687.002 90.2906 687.002ZM106.866 689V675.364H109.52V689H106.866ZM108.206 673.26C107.744 673.26 107.348 673.106 107.016 672.798C106.691 672.484 106.528 672.111 106.528 671.679C106.528 671.241 106.691 670.868 107.016 670.561C107.348 670.247 107.744 670.09 108.206 670.09C108.668 670.09 109.061 670.247 109.387 670.561C109.718 670.868 109.884 671.241 109.884 671.679C109.884 672.111 109.718 672.484 109.387 672.798C109.061 673.106 108.668 673.26 108.206 673.26ZM115.746 680.903V689H113.091V675.364H115.639V677.583H115.808C116.121 676.861 116.613 676.281 117.281 675.843C117.956 675.405 118.805 675.186 119.829 675.186C120.759 675.186 121.572 675.381 122.271 675.772C122.969 676.157 123.511 676.731 123.895 677.494C124.28 678.258 124.472 679.202 124.472 680.326V689H121.818V680.646C121.818 679.658 121.561 678.885 121.046 678.329C120.531 677.767 119.823 677.485 118.924 677.485C118.308 677.485 117.761 677.619 117.281 677.885C116.808 678.151 116.432 678.542 116.154 679.057C115.882 679.566 115.746 680.181 115.746 680.903ZM134.398 675.364V677.494H126.949V675.364H134.398ZM128.947 672.097H131.601V684.996C131.601 685.511 131.678 685.899 131.832 686.159C131.986 686.414 132.184 686.588 132.427 686.683C132.676 686.772 132.945 686.816 133.235 686.816C133.448 686.816 133.634 686.801 133.794 686.772C133.954 686.742 134.078 686.718 134.167 686.701L134.646 688.893C134.493 688.953 134.274 689.012 133.99 689.071C133.705 689.136 133.35 689.172 132.924 689.178C132.226 689.189 131.575 689.065 130.971 688.805C130.367 688.544 129.879 688.142 129.506 687.597C129.133 687.053 128.947 686.369 128.947 685.547V672.097ZM143.065 689.275C141.721 689.275 140.564 688.988 139.594 688.414C138.629 687.834 137.883 687.02 137.356 685.973C136.836 684.919 136.575 683.685 136.575 682.271C136.575 680.874 136.836 679.643 137.356 678.577C137.883 677.512 138.617 676.681 139.558 676.083C140.505 675.485 141.612 675.186 142.878 675.186C143.648 675.186 144.394 675.313 145.116 675.568C145.838 675.822 146.486 676.222 147.06 676.766C147.634 677.311 148.087 678.018 148.418 678.888C148.75 679.752 148.915 680.803 148.915 682.04V682.981H138.076V680.992H146.314C146.314 680.294 146.172 679.675 145.888 679.137C145.604 678.592 145.204 678.163 144.69 677.849C144.181 677.536 143.583 677.379 142.896 677.379C142.15 677.379 141.499 677.562 140.943 677.929C140.393 678.29 139.967 678.764 139.665 679.35C139.369 679.93 139.221 680.56 139.221 681.241V682.794C139.221 683.706 139.381 684.481 139.7 685.12C140.026 685.76 140.478 686.248 141.059 686.585C141.639 686.917 142.316 687.082 143.092 687.082C143.595 687.082 144.053 687.011 144.468 686.869C144.882 686.721 145.24 686.502 145.542 686.212C145.844 685.922 146.074 685.564 146.234 685.138L148.747 685.591C148.545 686.331 148.184 686.979 147.664 687.535C147.149 688.086 146.501 688.515 145.719 688.822C144.944 689.124 144.059 689.275 143.065 689.275ZM151.861 689V675.364H154.426V677.53H154.568C154.817 676.796 155.255 676.219 155.882 675.799C156.516 675.373 157.232 675.159 158.031 675.159C158.196 675.159 158.392 675.165 158.617 675.177C158.847 675.189 159.028 675.204 159.158 675.222V677.761C159.052 677.731 158.862 677.699 158.59 677.663C158.318 677.622 158.046 677.601 157.773 677.601C157.146 677.601 156.587 677.734 156.095 678C155.61 678.261 155.225 678.625 154.941 679.092C154.657 679.554 154.515 680.081 154.515 680.673V689H151.861ZM171.674 678.693L169.268 679.119C169.167 678.811 169.007 678.518 168.788 678.24C168.575 677.962 168.285 677.734 167.918 677.556C167.551 677.379 167.093 677.29 166.542 677.29C165.791 677.29 165.163 677.459 164.66 677.796C164.157 678.128 163.906 678.557 163.906 679.083C163.906 679.539 164.074 679.906 164.412 680.184C164.749 680.462 165.294 680.69 166.045 680.868L168.211 681.365C169.466 681.655 170.401 682.102 171.017 682.706C171.632 683.309 171.94 684.094 171.94 685.058C171.94 685.875 171.703 686.603 171.23 687.242C170.762 687.875 170.108 688.373 169.268 688.734C168.433 689.095 167.466 689.275 166.365 689.275C164.838 689.275 163.592 688.95 162.627 688.299C161.662 687.642 161.071 686.71 160.852 685.502L163.417 685.112C163.577 685.78 163.906 686.286 164.403 686.63C164.9 686.967 165.548 687.136 166.347 687.136C167.217 687.136 167.912 686.955 168.433 686.594C168.954 686.227 169.215 685.78 169.215 685.254C169.215 684.827 169.055 684.469 168.735 684.179C168.421 683.889 167.939 683.67 167.288 683.522L164.98 683.016C163.707 682.726 162.766 682.265 162.157 681.631C161.553 680.998 161.251 680.196 161.251 679.225C161.251 678.421 161.476 677.716 161.926 677.113C162.376 676.509 162.997 676.038 163.79 675.701C164.583 675.358 165.492 675.186 166.516 675.186C167.989 675.186 169.149 675.506 169.996 676.145C170.842 676.778 171.401 677.627 171.674 678.693ZM181.224 675.364V677.494H173.776V675.364H181.224ZM175.773 672.097H178.428V684.996C178.428 685.511 178.504 685.899 178.658 686.159C178.812 686.414 179.011 686.588 179.253 686.683C179.502 686.772 179.771 686.816 180.061 686.816C180.274 686.816 180.461 686.801 180.62 686.772C180.78 686.742 180.904 686.718 180.993 686.701L181.473 688.893C181.319 688.953 181.1 689.012 180.816 689.071C180.532 689.136 180.176 689.172 179.75 689.178C179.052 689.189 178.401 689.065 177.797 688.805C177.194 688.544 176.705 688.142 176.332 687.597C175.96 687.053 175.773 686.369 175.773 685.547V672.097ZM184.16 689V675.364H186.815V689H184.16ZM185.501 673.26C185.039 673.26 184.643 673.106 184.311 672.798C183.986 672.484 183.823 672.111 183.823 671.679C183.823 671.241 183.986 670.868 184.311 670.561C184.643 670.247 185.039 670.09 185.501 670.09C185.963 670.09 186.356 670.247 186.682 670.561C187.013 670.868 187.179 671.241 187.179 671.679C187.179 672.111 187.013 672.484 186.682 672.798C186.356 673.106 185.963 673.26 185.501 673.26ZM193.04 680.903V689H190.386V675.364H192.934V677.583H193.103C193.416 676.861 193.908 676.281 194.576 675.843C195.251 675.405 196.1 675.186 197.124 675.186C198.054 675.186 198.867 675.381 199.566 675.772C200.264 676.157 200.806 676.731 201.19 677.494C201.575 678.258 201.767 679.202 201.767 680.326V689H199.113V680.646C199.113 679.658 198.855 678.885 198.341 678.329C197.826 677.767 197.118 677.485 196.219 677.485C195.603 677.485 195.056 677.619 194.576 677.885C194.103 678.151 193.727 678.542 193.449 679.057C193.177 679.566 193.04 680.181 193.04 680.903ZM211.045 694.398C209.962 694.398 209.029 694.256 208.248 693.972C207.473 693.688 206.84 693.312 206.348 692.844C205.857 692.377 205.49 691.865 205.248 691.308L207.529 690.367C207.689 690.628 207.902 690.903 208.168 691.193C208.441 691.489 208.808 691.74 209.269 691.947C209.737 692.155 210.337 692.258 211.071 692.258C212.078 692.258 212.909 692.013 213.566 691.521C214.223 691.036 214.551 690.261 214.551 689.195V686.514H214.383C214.223 686.804 213.992 687.127 213.69 687.482C213.394 687.837 212.986 688.145 212.465 688.405C211.944 688.666 211.267 688.796 210.432 688.796C209.355 688.796 208.384 688.544 207.52 688.041C206.662 687.532 205.981 686.783 205.478 685.795C204.981 684.801 204.733 683.579 204.733 682.129C204.733 680.679 204.978 679.436 205.469 678.4C205.967 677.364 206.647 676.571 207.511 676.021C208.375 675.464 209.355 675.186 210.45 675.186C211.296 675.186 211.98 675.328 212.501 675.612C213.022 675.89 213.427 676.216 213.717 676.589C214.013 676.962 214.241 677.29 214.401 677.574H214.596V675.364H217.197V689.302C217.197 690.474 216.925 691.435 216.38 692.187C215.836 692.939 215.099 693.495 214.17 693.856C213.246 694.217 212.205 694.398 211.045 694.398ZM211.018 686.594C211.782 686.594 212.427 686.417 212.953 686.061C213.486 685.7 213.889 685.185 214.161 684.517C214.439 683.842 214.578 683.034 214.578 682.093C214.578 681.176 214.442 680.368 214.17 679.669C213.897 678.971 213.498 678.426 212.971 678.036C212.444 677.639 211.793 677.441 211.018 677.441C210.219 677.441 209.553 677.648 209.021 678.062C208.488 678.471 208.085 679.027 207.813 679.732C207.547 680.436 207.414 681.223 207.414 682.093C207.414 682.987 207.55 683.771 207.822 684.446C208.094 685.12 208.497 685.647 209.029 686.026C209.568 686.405 210.231 686.594 211.018 686.594ZM233.863 675.364V677.494H226.157V675.364H233.863ZM228.27 689V673.783C228.27 672.931 228.456 672.224 228.829 671.662C229.202 671.093 229.696 670.67 230.312 670.392C230.927 670.108 231.596 669.966 232.318 669.966C232.851 669.966 233.307 670.01 233.685 670.099C234.064 670.182 234.345 670.259 234.529 670.33L233.907 672.478C233.783 672.443 233.623 672.401 233.428 672.354C233.233 672.301 232.996 672.274 232.718 672.274C232.073 672.274 231.611 672.434 231.333 672.754C231.061 673.073 230.924 673.535 230.924 674.138V689H228.27ZM236.602 689V675.364H239.168V677.53H239.31C239.558 676.796 239.996 676.219 240.623 675.799C241.257 675.373 241.973 675.159 242.772 675.159C242.938 675.159 243.133 675.165 243.358 675.177C243.589 675.189 243.769 675.204 243.899 675.222V677.761C243.793 677.731 243.603 677.699 243.331 677.663C243.059 677.622 242.787 677.601 242.514 677.601C241.887 677.601 241.328 677.734 240.837 678C240.351 678.261 239.967 678.625 239.682 679.092C239.398 679.554 239.256 680.081 239.256 680.673V689H236.602ZM246.197 689V675.364H248.851V689H246.197ZM247.537 673.26C247.075 673.26 246.679 673.106 246.347 672.798C246.022 672.484 245.859 672.111 245.859 671.679C245.859 671.241 246.022 670.868 246.347 670.561C246.679 670.247 247.075 670.09 247.537 670.09C247.999 670.09 248.392 670.247 248.718 670.561C249.049 670.868 249.215 671.241 249.215 671.679C249.215 672.111 249.049 672.484 248.718 672.798C248.392 673.106 247.999 673.26 247.537 673.26ZM258.299 689.275C256.956 689.275 255.799 688.988 254.828 688.414C253.863 687.834 253.118 687.02 252.591 685.973C252.07 684.919 251.81 683.685 251.81 682.271C251.81 680.874 252.07 679.643 252.591 678.577C253.118 677.512 253.851 676.681 254.793 676.083C255.739 675.485 256.846 675.186 258.113 675.186C258.882 675.186 259.628 675.313 260.35 675.568C261.072 675.822 261.72 676.222 262.294 676.766C262.868 677.311 263.321 678.018 263.653 678.888C263.984 679.752 264.15 680.803 264.15 682.04V682.981H253.31V680.992H261.549C261.549 680.294 261.407 679.675 261.122 679.137C260.838 678.592 260.439 678.163 259.924 677.849C259.415 677.536 258.817 677.379 258.131 677.379C257.385 677.379 256.734 677.562 256.177 677.929C255.627 678.29 255.201 678.764 254.899 679.35C254.603 679.93 254.455 680.56 254.455 681.241V682.794C254.455 683.706 254.615 684.481 254.935 685.12C255.26 685.76 255.713 686.248 256.293 686.585C256.873 686.917 257.551 687.082 258.326 687.082C258.829 687.082 259.288 687.011 259.702 686.869C260.116 686.721 260.474 686.502 260.776 686.212C261.078 685.922 261.309 685.564 261.469 685.138L263.981 685.591C263.78 686.331 263.419 686.979 262.898 687.535C262.383 688.086 261.735 688.515 260.954 688.822C260.178 689.124 259.294 689.275 258.299 689.275ZM269.749 680.903V689H267.095V675.364H269.643V677.583H269.812C270.125 676.861 270.617 676.281 271.285 675.843C271.96 675.405 272.809 675.186 273.833 675.186C274.762 675.186 275.576 675.381 276.275 675.772C276.973 676.157 277.515 676.731 277.899 677.494C278.284 678.258 278.476 679.202 278.476 680.326V689H275.822V680.646C275.822 679.658 275.564 678.885 275.05 678.329C274.535 677.767 273.827 677.485 272.928 677.485C272.312 677.485 271.765 677.619 271.285 677.885C270.812 678.151 270.436 678.542 270.158 679.057C269.886 679.566 269.749 680.181 269.749 680.903ZM292.255 678.693L289.849 679.119C289.748 678.811 289.588 678.518 289.369 678.24C289.156 677.962 288.866 677.734 288.499 677.556C288.133 677.379 287.674 677.29 287.123 677.29C286.372 677.29 285.744 677.459 285.241 677.796C284.738 678.128 284.487 678.557 284.487 679.083C284.487 679.539 284.655 679.906 284.993 680.184C285.33 680.462 285.875 680.69 286.626 680.868L288.792 681.365C290.047 681.655 290.982 682.102 291.598 682.706C292.213 683.309 292.521 684.094 292.521 685.058C292.521 685.875 292.284 686.603 291.811 687.242C291.343 687.875 290.689 688.373 289.849 688.734C289.014 689.095 288.047 689.275 286.946 689.275C285.419 689.275 284.173 688.95 283.208 688.299C282.244 687.642 281.652 686.71 281.433 685.502L283.998 685.112C284.158 685.78 284.487 686.286 284.984 686.63C285.481 686.967 286.129 687.136 286.928 687.136C287.798 687.136 288.494 686.955 289.014 686.594C289.535 686.227 289.796 685.78 289.796 685.254C289.796 684.827 289.636 684.469 289.316 684.179C289.003 683.889 288.52 683.67 287.869 683.522L285.561 683.016C284.288 682.726 283.347 682.265 282.738 681.631C282.134 680.998 281.832 680.196 281.832 679.225C281.832 678.421 282.057 677.716 282.507 677.113C282.957 676.509 283.578 676.038 284.371 675.701C285.164 675.358 286.073 675.186 287.097 675.186C288.57 675.186 289.731 675.506 290.577 676.145C291.423 676.778 291.983 677.627 292.255 678.693ZM304.71 680.903V689H302.056V675.364H304.604V677.583H304.773C305.086 676.861 305.577 676.281 306.246 675.843C306.921 675.405 307.77 675.186 308.794 675.186C309.723 675.186 310.537 675.381 311.236 675.772C311.934 676.157 312.476 676.731 312.86 677.494C313.245 678.258 313.437 679.202 313.437 680.326V689H310.783V680.646C310.783 679.658 310.525 678.885 310.01 678.329C309.496 677.767 308.788 677.485 307.889 677.485C307.273 677.485 306.726 677.619 306.246 677.885C305.773 678.151 305.397 678.542 305.119 679.057C304.847 679.566 304.71 680.181 304.71 680.903ZM322.874 689.275C321.531 689.275 320.374 688.988 319.403 688.414C318.439 687.834 317.693 687.02 317.166 685.973C316.645 684.919 316.385 683.685 316.385 682.271C316.385 680.874 316.645 679.643 317.166 678.577C317.693 677.512 318.427 676.681 319.368 676.083C320.315 675.485 321.421 675.186 322.688 675.186C323.457 675.186 324.203 675.313 324.925 675.568C325.647 675.822 326.295 676.222 326.869 676.766C327.444 677.311 327.896 678.018 328.228 678.888C328.559 679.752 328.725 680.803 328.725 682.04V682.981H317.885V680.992H326.124C326.124 680.294 325.982 679.675 325.698 679.137C325.414 678.592 325.014 678.163 324.499 677.849C323.99 677.536 323.392 677.379 322.706 677.379C321.96 677.379 321.309 677.562 320.753 677.929C320.202 678.29 319.776 678.764 319.474 679.35C319.178 679.93 319.03 680.56 319.03 681.241V682.794C319.03 683.706 319.19 684.481 319.51 685.12C319.835 685.76 320.288 686.248 320.868 686.585C321.448 686.917 322.126 687.082 322.901 687.082C323.404 687.082 323.863 687.011 324.277 686.869C324.691 686.721 325.05 686.502 325.351 686.212C325.653 685.922 325.884 685.564 326.044 685.138L328.556 685.591C328.355 686.331 327.994 686.979 327.473 687.535C326.958 688.086 326.31 688.515 325.529 688.822C324.754 689.124 323.869 689.275 322.874 689.275ZM335.639 689.302C334.774 689.302 333.993 689.142 333.295 688.822C332.596 688.497 332.043 688.026 331.635 687.411C331.232 686.795 331.031 686.041 331.031 685.147C331.031 684.378 331.179 683.744 331.475 683.247C331.771 682.75 332.17 682.356 332.673 682.066C333.176 681.776 333.739 681.557 334.36 681.409C334.982 681.261 335.615 681.149 336.26 681.072C337.077 680.977 337.74 680.9 338.249 680.841C338.758 680.776 339.128 680.673 339.358 680.531C339.589 680.388 339.705 680.158 339.705 679.838V679.776C339.705 679.001 339.486 678.4 339.048 677.974C338.616 677.548 337.97 677.335 337.112 677.335C336.219 677.335 335.514 677.533 334.999 677.929C334.49 678.32 334.138 678.755 333.943 679.234L331.448 678.666C331.744 677.838 332.176 677.169 332.744 676.66C333.319 676.145 333.978 675.772 334.724 675.541C335.47 675.304 336.254 675.186 337.077 675.186C337.621 675.186 338.198 675.251 338.808 675.381C339.424 675.506 339.998 675.737 340.53 676.074C341.069 676.411 341.51 676.894 341.853 677.521C342.196 678.142 342.368 678.95 342.368 679.945V689H339.776V687.136H339.669C339.497 687.479 339.24 687.816 338.897 688.148C338.553 688.479 338.113 688.754 337.574 688.973C337.035 689.192 336.39 689.302 335.639 689.302ZM336.216 687.171C336.95 687.171 337.577 687.026 338.098 686.736C338.624 686.446 339.024 686.067 339.296 685.6C339.574 685.126 339.714 684.62 339.714 684.082V682.324C339.619 682.419 339.435 682.507 339.163 682.59C338.897 682.667 338.592 682.735 338.249 682.794C337.905 682.848 337.571 682.898 337.245 682.945C336.92 682.987 336.648 683.022 336.429 683.052C335.914 683.117 335.443 683.226 335.017 683.38C334.597 683.534 334.26 683.756 334.005 684.046C333.756 684.33 333.632 684.709 333.632 685.183C333.632 685.839 333.875 686.337 334.36 686.674C334.845 687.005 335.464 687.171 336.216 687.171ZM345.904 689V675.364H348.469V677.53H348.611C348.86 676.796 349.298 676.219 349.925 675.799C350.559 675.373 351.275 675.159 352.074 675.159C352.239 675.159 352.435 675.165 352.66 675.177C352.89 675.189 353.071 675.204 353.201 675.222V677.761C353.095 677.731 352.905 677.699 352.633 677.663C352.361 677.622 352.088 677.601 351.816 677.601C351.189 677.601 350.63 677.734 350.138 678C349.653 678.261 349.268 678.625 348.984 679.092C348.7 679.554 348.558 680.081 348.558 680.673V689H345.904ZM355.711 689V670.818H358.366V677.574H358.526C358.68 677.29 358.901 676.962 359.191 676.589C359.482 676.216 359.884 675.89 360.399 675.612C360.914 675.328 361.594 675.186 362.441 675.186C363.542 675.186 364.524 675.464 365.388 676.021C366.252 676.577 366.93 677.379 367.421 678.426C367.918 679.474 368.167 680.735 368.167 682.208C368.167 683.682 367.921 684.946 367.43 685.999C366.939 687.047 366.264 687.855 365.406 688.423C364.548 688.985 363.568 689.266 362.467 689.266C361.639 689.266 360.961 689.127 360.434 688.849C359.914 688.571 359.505 688.245 359.209 687.873C358.913 687.5 358.685 687.168 358.526 686.878H358.304V689H355.711ZM358.313 682.182C358.313 683.141 358.452 683.981 358.73 684.703C359.008 685.425 359.41 685.99 359.937 686.399C360.464 686.801 361.109 687.002 361.873 687.002C362.666 687.002 363.329 686.792 363.861 686.372C364.394 685.946 364.796 685.369 365.069 684.641C365.347 683.913 365.486 683.093 365.486 682.182C365.486 681.282 365.35 680.474 365.078 679.758C364.811 679.042 364.409 678.477 363.87 678.062C363.337 677.648 362.672 677.441 361.873 677.441C361.103 677.441 360.452 677.639 359.919 678.036C359.393 678.432 358.993 678.986 358.721 679.696C358.449 680.406 358.313 681.235 358.313 682.182ZM372.362 694.114C371.965 694.114 371.604 694.081 371.279 694.016C370.953 693.957 370.71 693.892 370.551 693.821L371.19 691.646C371.675 691.776 372.107 691.832 372.486 691.814C372.865 691.797 373.199 691.654 373.489 691.388C373.785 691.122 374.046 690.687 374.271 690.083L374.599 689.178L369.61 675.364H372.451L375.904 685.946H376.046L379.5 675.364H382.349L376.73 690.82C376.469 691.53 376.138 692.131 375.735 692.622C375.333 693.119 374.853 693.492 374.297 693.741C373.741 693.989 373.096 694.114 372.362 694.114Z" fill="#928282"/>
<path fill-rule="evenodd" clip-rule="evenodd" d="M-21.5 105C46.7072 105 102 48.8117 102 -20.5C102 -89.8117 46.7072 -146 -21.5 -146C-89.7072 -146 -145 -89.8117 -145 -20.5C-145 48.8117 -89.7072 105 -21.5 105ZM-21.5 102.926C45.5798 102.926 99.9587 47.6661 99.9587 -20.5C99.9587 -88.6661 45.5798 -143.926 -21.5 -143.926C-88.5798 -143.926 -142.959 -88.6661 -142.959 -20.5C-142.959 47.6661 -88.5798 102.926 -21.5 102.926Z" fill="#9AF2FF"/>
<path fill-rule="evenodd" clip-rule="evenodd" d="M17.5 172C98.962 172 165 105.962 165 24.5C165 -56.962 98.962 -123 17.5 -123C-63.962 -123 -130 -56.962 -130 24.5C-130 105.962 -63.962 172 17.5 172ZM17.5 169.562C97.6155 169.562 162.562 104.616 162.562 24.5C162.562 -55.6155 97.6155 -120.562 17.5 -120.562C-62.6155 -120.562 -127.562 -55.6155 -127.562 24.5C-127.562 104.616 -62.6155 169.562 17.5 169.562Z" fill="#9AF2FF"/>
<path fill-rule="evenodd" clip-rule="evenodd" d="M39.5 252C145.263 252 231 166.263 231 60.5C231 -45.2625 145.263 -131 39.5 -131C-66.2625 -131 -152 -45.2625 -152 60.5C-152 166.263 -66.2625 252 39.5 252ZM39.5 248.835C143.514 248.835 227.835 164.514 227.835 60.5C227.835 -43.5144 143.514 -127.835 39.5 -127.835C-64.5144 -127.835 -148.835 -43.5144 -148.835 60.5C-148.835 164.514 -64.5144 248.835 39.5 248.835Z" fill="#9AF2FF"/>
<g filter="url(#filter0_i_14_155)">
<path d="M202.094 279.198C209.813 278.107 216.034 274.423 220.759 268.145C225.475 261.877 227.288 254.884 226.198 247.165C225.107 239.447 221.428 233.224 215.159 228.499C208.882 223.784 201.884 221.971 194.165 223.062C186.447 224.152 180.229 227.831 175.513 234.099C170.789 240.377 168.971 247.375 170.062 255.094C171.152 262.813 174.836 269.03 181.113 273.745C187.382 278.47 194.375 280.288 202.094 279.198ZM230.312 409.918C225.519 415.5 217.336 416.656 211.185 412.619C174.21 388.354 145.459 364.867 124.931 342.156C102.45 317.305 89.5579 293.184 86.2542 269.794C81.2986 234.709 88.6387 205.164 108.274 181.158C127.901 157.154 152.567 143.053 182.272 138.858C211.977 134.662 239.583 141.379 265.09 159.009C290.607 176.637 305.843 202.994 310.798 238.079C314.102 261.469 308.399 288.216 293.69 318.32C280.246 345.829 259.121 376.361 230.312 409.918Z" fill="#1D85FE"/>
</g>
<circle cx="199" cy="244" r="50" transform="rotate(-7.93061 199 244)" fill="url(#paint1_linear_14_155)"/>
<path d="M268 466.493C268 458.507 268.707 451.144 272.265 443.83C275.473 437.236 280.869 431.521 286.01 426.38C293.747 418.643 300.195 409.873 309.103 403.373C313.093 400.461 319.584 399.865 321.9 405.075C323.049 407.662 323.451 409.516 323.451 412.378C323.451 413.477 323.512 414.597 323.451 415.695C323.377 417.026 321.671 417.474 320.909 418.237C319.198 419.948 316.646 420.829 314.92 422.46C314.243 423.099 313.377 423.611 312.378 423.429C310.941 423.168 311.134 421.519 310.353 420.65C309.474 419.673 309.663 416.395 309.9 415.092C310.45 412.07 313.371 410.63 315.114 408.5C319.138 403.581 324.133 399.503 328.621 395.014C333.497 390.139 338.664 385.249 343.916 380.796C347.544 377.72 351.284 374.437 354.773 371.188C355.743 370.286 356.878 369.501 358.134 369.142C358.865 368.933 358.921 368 359.901 368" stroke="white" stroke-width="3" stroke-linecap="round"/>
<path d="M93 400C96.9676 400 101.845 403.404 105.15 405.407C109.03 407.758 112.65 410.453 116.503 412.882C122.472 416.645 125.625 422.56 128.653 428.867C129.694 431.035 132.688 437.611 130.161 439.38C128.989 440.2 127.129 439.94 125.788 439.94C123.642 439.94 121.355 440.169 119.239 439.746C116.636 439.225 114.552 436.635 112.97 434.64C110.543 431.581 109.459 426.361 109.674 422.49C109.887 418.651 120.347 424.169 121.565 425.765C122.733 427.295 124.354 428.584 125.335 430.246C126.347 431.958 127.078 433.9 127.985 435.674C130.741 441.067 134.647 445.934 137.809 451.099C139.095 453.2 140.675 455.752 141.385 458.165C141.641 459.036 141.799 460.462 142.634 460.879" stroke="white" stroke-width="3" stroke-linecap="round"/>
<path d="M62.6844 295C83.3227 295 95 298.251 95 311.587C95 320.016 93.4007 337.69 78.0463 336.329C76.113 336.157 74.4829 338.448 75.6169 340.023L81.2776 347.885C82.6409 349.779 80.2099 352.077 78.3963 350.609L64.7457 339.561C64.3761 339.262 63.9122 339.106 63.4372 339.127C63.19 339.138 62.9409 339.148 62.6844 339.148C42.0462 339.148 31 324.922 31 311.587C31 298.251 42.0462 295 62.6844 295ZM81.3669 320.383C84.7968 320.383 87.5992 317.982 87.5992 315.016C87.5992 312.05 84.8114 309.649 81.3669 309.649C77.9369 309.649 75.1345 312.05 75.1345 315.016C75.1345 317.982 77.9369 320.383 81.3669 320.383ZM62.6844 320.383C66.1144 320.383 68.9168 317.982 68.9168 315.016C68.9168 312.05 66.129 309.649 62.6844 309.649C59.2544 309.649 56.4521 312.05 56.4521 315.016C56.4521 317.982 59.2544 320.383 62.6844 320.383ZM44.002 320.383C47.4319 320.383 50.2343 317.982 50.2343 315.016C50.2343 312.05 47.4465 309.649 44.002 309.649C40.572 309.649 37.7696 312.05 37.7696 315.016C37.7696 317.982 40.572 320.383 44.002 320.383Z" stroke="white" stroke-width="2"/>
<path d="M406.954 315.051C406.464 314.562 405.844 314.224 405.167 314.08C404.491 313.935 403.787 313.988 403.14 314.234L343.318 336.877C343.315 336.879 343.311 336.879 343.307 336.879V336.879C343.303 336.879 343.299 336.88 343.295 336.882C342.608 337.147 342.019 337.618 341.608 338.23C341.197 338.844 340.985 339.57 341.001 340.309C341.017 341.048 341.261 341.764 341.7 342.359C342.138 342.954 342.75 343.399 343.45 343.634L343.512 343.653L364.046 352.422C364.446 352.543 364.872 352.558 365.28 352.464C365.687 352.369 366.063 352.17 366.37 351.885L399.326 321.176C399.424 321.077 399.541 320.999 399.669 320.946C399.798 320.893 399.935 320.866 400.074 320.866C400.213 320.866 400.35 320.893 400.479 320.946C400.607 320.999 400.724 321.077 400.822 321.176C400.92 321.274 400.998 321.39 401.051 321.519C401.104 321.647 401.132 321.784 401.132 321.923C401.132 322.062 401.104 322.2 401.051 322.328C400.998 322.456 400.92 322.573 400.822 322.671L370.112 355.613C369.827 355.92 369.627 356.296 369.533 356.704C369.439 357.112 369.453 357.537 369.575 357.938L378.346 378.484C378.355 378.514 378.364 378.541 378.375 378.57C378.853 379.956 380.065 380.934 381.529 381H381.679C382.418 381.004 383.141 380.786 383.755 380.374C384.368 379.961 384.843 379.374 385.118 378.688L407.76 318.875C408.009 318.228 408.066 317.523 407.923 316.844C407.78 316.165 407.443 315.542 406.954 315.051Z" fill="white"/>
</g>
<defs>
<filter id="filter0_i_14_155" x="84.7563" y="137.648" width="234.951" height="297.372" filterUnits="userSpaceOnUse" color-interpolation-filters="sRGB">
<feFlood flood-opacity="0" result="BackgroundImageFix"/>
<feBlend mode="normal" in="SourceGraphic" in2="BackgroundImageFix" result="shape"/>
<feColorMatrix in="SourceAlpha" type="matrix" values="0 0 0 0 0 0 0 0 0 0 0 0 0 0 0 0 0 0 127 0" result="hardAlpha"/>
<feOffset dx="8" dy="20"/>
<feGaussianBlur stdDeviation="25"/>
<feComposite in2="hardAlpha" operator="arithmetic" k2="-1" k3="1"/>
<feColorMatrix type="matrix" values="0 0 0 0 1 0 0 0 0 1 0 0 0 0 1 0 0 0 1 0"/>
<feBlend mode="normal" in2="shape" result="effect1_innerShadow_14_155"/>
</filter>
<linearGradient id="paint0_linear_14_155" x1="215" y1="0" x2="215" y2="932" gradientUnits="userSpaceOnUse">
<stop offset="0.0690928" stop-color="#70DBFF"/>
<stop offset="1" stop-color="#FFFDFE"/>
</linearGradient>
<linearGradient id="paint1_linear_14_155" x1="199" y1="194" x2="195.896" y2="266.285" gradientUnits="userSpaceOnUse">
<stop stop-color="#F3FAFC"/>
<stop offset="1" stop-color="#ACD1FE"/>
</linearGradient>
<clipPath id="clip0_14_155">
<rect width="430" height="932" fill="white"/>
</clipPath>
</defs>
</svg>
