<svg width="430" height="932" viewBox="0 0 430 932" fill="none" xmlns="http://www.w3.org/2000/svg">
<g clip-path="url(#clip0_10_87)">
<rect width="430" height="932" fill="url(#paint0_linear_10_87)"/>
<ellipse cx="225" cy="455" rx="128" ry="31" fill="#BBA5FF"/>
<path d="M147.109 622L156.055 651.297H156.387L165.332 622H176.152L162.656 662H149.785L136.289 622H147.109ZM180.459 662V632H190.01V662H180.459ZM185.244 628.504C183.903 628.504 182.751 628.061 181.787 627.176C180.824 626.277 180.342 625.197 180.342 623.934C180.342 622.684 180.824 621.616 181.787 620.73C182.751 619.832 183.903 619.383 185.244 619.383C186.598 619.383 187.751 619.832 188.701 620.73C189.665 621.616 190.146 622.684 190.146 623.934C190.146 625.197 189.665 626.277 188.701 627.176C187.751 628.061 186.598 628.504 185.244 628.504ZM207.046 662.43C204.832 662.43 202.821 661.857 201.011 660.711C199.201 659.565 197.756 657.846 196.675 655.555C195.594 653.263 195.054 650.418 195.054 647.02C195.054 643.491 195.614 640.587 196.733 638.309C197.853 636.03 199.318 634.344 201.128 633.25C202.951 632.156 204.91 631.609 207.007 631.609C208.582 631.609 209.93 631.883 211.05 632.43C212.17 632.964 213.094 633.654 213.823 634.5C214.552 635.346 215.106 636.225 215.483 637.137H215.679V622H225.229V662H215.776V657.137H215.483C215.08 658.061 214.507 658.927 213.765 659.734C213.022 660.542 212.091 661.193 210.972 661.687C209.865 662.182 208.556 662.43 207.046 662.43ZM210.366 654.988C211.525 654.988 212.515 654.663 213.335 654.012C214.155 653.348 214.787 652.417 215.229 651.219C215.672 650.021 215.894 648.615 215.894 647C215.894 645.359 215.672 643.947 215.229 642.762C214.8 641.577 214.168 640.665 213.335 640.027C212.515 639.389 211.525 639.07 210.366 639.07C209.181 639.07 208.179 639.396 207.358 640.047C206.538 640.698 205.913 641.616 205.483 642.801C205.067 643.986 204.858 645.385 204.858 647C204.858 648.615 205.073 650.021 205.503 651.219C205.933 652.417 206.551 653.348 207.358 654.012C208.179 654.663 209.181 654.988 210.366 654.988ZM245.293 662.566C242.155 662.566 239.447 661.948 237.168 660.711C234.902 659.461 233.158 657.684 231.934 655.379C230.723 653.061 230.117 650.307 230.117 647.117C230.117 644.018 230.729 641.31 231.953 638.992C233.177 636.661 234.902 634.852 237.129 633.562C239.355 632.26 241.979 631.609 245 631.609C247.135 631.609 249.089 631.941 250.859 632.605C252.63 633.27 254.16 634.253 255.449 635.555C256.738 636.857 257.741 638.465 258.457 640.379C259.173 642.28 259.531 644.461 259.531 646.922V649.305H233.457V643.758H250.645C250.632 642.742 250.391 641.837 249.922 641.043C249.453 640.249 248.809 639.63 247.988 639.187C247.181 638.732 246.25 638.504 245.195 638.504C244.128 638.504 243.171 638.745 242.324 639.227C241.478 639.695 240.807 640.34 240.313 641.16C239.818 641.967 239.557 642.885 239.531 643.914V649.559C239.531 650.783 239.772 651.857 240.254 652.781C240.736 653.693 241.419 654.402 242.305 654.91C243.19 655.418 244.245 655.672 245.469 655.672C246.315 655.672 247.083 655.555 247.773 655.32C248.464 655.086 249.056 654.741 249.551 654.285C250.046 653.829 250.417 653.27 250.664 652.605L259.434 652.859C259.069 654.826 258.268 656.538 257.031 657.996C255.807 659.441 254.199 660.568 252.207 661.375C250.215 662.169 247.91 662.566 245.293 662.566ZM278.413 662.566C275.262 662.566 272.554 661.922 270.288 660.633C268.035 659.331 266.297 657.521 265.073 655.203C263.862 652.872 263.257 650.171 263.257 647.098C263.257 644.012 263.862 641.31 265.073 638.992C266.297 636.661 268.035 634.852 270.288 633.562C272.554 632.26 275.262 631.609 278.413 631.609C281.564 631.609 284.266 632.26 286.519 633.562C288.784 634.852 290.522 636.661 291.733 638.992C292.957 641.31 293.569 644.012 293.569 647.098C293.569 650.171 292.957 652.872 291.733 655.203C290.522 657.521 288.784 659.331 286.519 660.633C284.266 661.922 281.564 662.566 278.413 662.566ZM278.472 655.359C279.618 655.359 280.588 655.008 281.382 654.305C282.176 653.602 282.782 652.625 283.198 651.375C283.628 650.125 283.843 648.68 283.843 647.039C283.843 645.372 283.628 643.914 283.198 642.664C282.782 641.414 282.176 640.437 281.382 639.734C280.588 639.031 279.618 638.68 278.472 638.68C277.287 638.68 276.284 639.031 275.464 639.734C274.657 640.437 274.038 641.414 273.608 642.664C273.192 643.914 272.983 645.372 272.983 647.039C272.983 648.68 273.192 650.125 273.608 651.375C274.038 652.625 274.657 653.602 275.464 654.305C276.284 655.008 277.287 655.359 278.472 655.359Z" fill="black"/>
<path d="M129.587 683.818L134.647 698.626H134.851L139.912 683.818H142.877L136.334 702H133.164L126.621 683.818H129.587ZM145.289 702V688.364H147.944V702H145.289ZM146.63 686.26C146.168 686.26 145.772 686.106 145.44 685.798C145.115 685.484 144.952 685.111 144.952 684.679C144.952 684.241 145.115 683.868 145.44 683.561C145.772 683.247 146.168 683.09 146.63 683.09C147.092 683.09 147.485 683.247 147.811 683.561C148.142 683.868 148.308 684.241 148.308 684.679C148.308 685.111 148.142 685.484 147.811 685.798C147.485 686.106 147.092 686.26 146.63 686.26ZM156.62 702.266C155.519 702.266 154.536 701.985 153.672 701.423C152.814 700.855 152.139 700.047 151.648 698.999C151.163 697.946 150.92 696.682 150.92 695.208C150.92 693.735 151.166 692.474 151.657 691.426C152.154 690.379 152.835 689.577 153.699 689.021C154.563 688.464 155.542 688.186 156.637 688.186C157.484 688.186 158.164 688.328 158.679 688.612C159.2 688.89 159.603 689.216 159.887 689.589C160.177 689.962 160.402 690.29 160.561 690.574H160.721V683.818H163.376V702H160.783V699.878H160.561C160.402 700.168 160.171 700.5 159.869 700.873C159.573 701.245 159.165 701.571 158.644 701.849C158.123 702.127 157.448 702.266 156.62 702.266ZM157.206 700.002C157.969 700.002 158.614 699.801 159.141 699.399C159.674 698.99 160.076 698.425 160.348 697.703C160.627 696.981 160.766 696.141 160.766 695.182C160.766 694.235 160.629 693.406 160.357 692.696C160.085 691.986 159.685 691.432 159.159 691.036C158.632 690.639 157.981 690.441 157.206 690.441C156.407 690.441 155.741 690.648 155.208 691.062C154.675 691.477 154.273 692.042 154.001 692.758C153.734 693.474 153.601 694.282 153.601 695.182C153.601 696.093 153.737 696.913 154.01 697.641C154.282 698.369 154.684 698.946 155.217 699.372C155.756 699.792 156.418 700.002 157.206 700.002ZM173.041 702.275C171.698 702.275 170.541 701.988 169.57 701.414C168.605 700.834 167.86 700.02 167.333 698.973C166.812 697.919 166.552 696.685 166.552 695.271C166.552 693.874 166.812 692.643 167.333 691.577C167.86 690.512 168.594 689.681 169.535 689.083C170.482 688.485 171.588 688.186 172.855 688.186C173.624 688.186 174.37 688.313 175.092 688.568C175.814 688.822 176.462 689.222 177.036 689.766C177.611 690.311 178.063 691.018 178.395 691.888C178.726 692.752 178.892 693.803 178.892 695.04V695.981H168.052V693.992H176.291C176.291 693.294 176.149 692.675 175.865 692.137C175.581 691.592 175.181 691.163 174.666 690.849C174.157 690.536 173.559 690.379 172.873 690.379C172.127 690.379 171.476 690.562 170.92 690.929C170.369 691.29 169.943 691.764 169.641 692.35C169.345 692.93 169.197 693.56 169.197 694.241V695.794C169.197 696.706 169.357 697.481 169.677 698.12C170.002 698.76 170.455 699.248 171.035 699.585C171.615 699.917 172.293 700.082 173.068 700.082C173.571 700.082 174.03 700.011 174.444 699.869C174.858 699.721 175.217 699.502 175.518 699.212C175.82 698.922 176.051 698.564 176.211 698.138L178.723 698.591C178.522 699.331 178.161 699.979 177.64 700.535C177.125 701.086 176.477 701.515 175.696 701.822C174.921 702.124 174.036 702.275 173.041 702.275ZM187.581 702.275C186.303 702.275 185.187 701.982 184.234 701.396C183.281 700.81 182.541 699.991 182.015 698.937C181.488 697.884 181.225 696.653 181.225 695.244C181.225 693.829 181.488 692.592 182.015 691.533C182.541 690.474 183.281 689.651 184.234 689.065C185.187 688.479 186.303 688.186 187.581 688.186C188.86 688.186 189.975 688.479 190.928 689.065C191.881 689.651 192.621 690.474 193.148 691.533C193.674 692.592 193.938 693.829 193.938 695.244C193.938 696.653 193.674 697.884 193.148 698.937C192.621 699.991 191.881 700.81 190.928 701.396C189.975 701.982 188.86 702.275 187.581 702.275ZM187.59 700.047C188.419 700.047 189.105 699.828 189.65 699.39C190.194 698.952 190.597 698.369 190.857 697.641C191.123 696.913 191.257 696.111 191.257 695.235C191.257 694.365 191.123 693.566 190.857 692.838C190.597 692.104 190.194 691.515 189.65 691.071C189.105 690.627 188.419 690.406 187.59 690.406C186.756 690.406 186.063 690.627 185.513 691.071C184.968 691.515 184.563 692.104 184.296 692.838C184.036 693.566 183.906 694.365 183.906 695.235C183.906 696.111 184.036 696.913 184.296 697.641C184.563 698.369 184.968 698.952 185.513 699.39C186.063 699.828 186.756 700.047 187.59 700.047ZM218.831 689.731H216.061C215.955 689.139 215.756 688.618 215.466 688.168C215.176 687.719 214.821 687.337 214.401 687.023C213.981 686.709 213.51 686.473 212.99 686.313C212.475 686.153 211.927 686.073 211.347 686.073C210.3 686.073 209.361 686.337 208.533 686.863C207.71 687.39 207.059 688.162 206.58 689.18C206.106 690.198 205.869 691.441 205.869 692.909C205.869 694.389 206.106 695.638 206.58 696.656C207.059 697.674 207.713 698.443 208.542 698.964C209.37 699.485 210.302 699.745 211.338 699.745C211.912 699.745 212.457 699.668 212.972 699.514C213.493 699.354 213.963 699.121 214.383 698.813C214.804 698.505 215.159 698.129 215.449 697.685C215.745 697.236 215.949 696.721 216.061 696.141L218.831 696.15C218.683 697.043 218.396 697.866 217.97 698.618C217.55 699.363 217.008 700.008 216.345 700.553C215.688 701.092 214.937 701.509 214.09 701.805C213.244 702.101 212.321 702.249 211.32 702.249C209.746 702.249 208.343 701.876 207.112 701.13C205.881 700.378 204.911 699.304 204.2 697.907C203.496 696.511 203.144 694.844 203.144 692.909C203.144 690.968 203.499 689.302 204.209 687.911C204.92 686.514 205.89 685.443 207.121 684.697C208.352 683.945 209.752 683.57 211.32 683.57C212.285 683.57 213.185 683.709 214.019 683.987C214.86 684.259 215.614 684.662 216.283 685.194C216.952 685.721 217.505 686.366 217.943 687.13C218.381 687.887 218.677 688.754 218.831 689.731ZM225.869 702.302C225.005 702.302 224.224 702.142 223.525 701.822C222.827 701.497 222.274 701.026 221.865 700.411C221.463 699.795 221.261 699.041 221.261 698.147C221.261 697.378 221.409 696.744 221.705 696.247C222.001 695.75 222.401 695.356 222.904 695.066C223.407 694.776 223.969 694.557 224.591 694.409C225.212 694.261 225.845 694.149 226.491 694.072C227.307 693.977 227.97 693.9 228.479 693.841C228.988 693.776 229.358 693.673 229.589 693.531C229.82 693.388 229.935 693.158 229.935 692.838V692.776C229.935 692.001 229.716 691.4 229.278 690.974C228.846 690.548 228.201 690.335 227.343 690.335C226.449 690.335 225.745 690.533 225.23 690.929C224.721 691.32 224.369 691.755 224.173 692.234L221.679 691.666C221.975 690.838 222.407 690.169 222.975 689.66C223.549 689.145 224.209 688.772 224.955 688.541C225.7 688.304 226.485 688.186 227.307 688.186C227.852 688.186 228.429 688.251 229.038 688.381C229.654 688.506 230.228 688.737 230.761 689.074C231.299 689.411 231.74 689.894 232.084 690.521C232.427 691.142 232.598 691.95 232.598 692.945V702H230.006V700.136H229.9C229.728 700.479 229.47 700.816 229.127 701.148C228.784 701.479 228.343 701.754 227.804 701.973C227.266 702.192 226.621 702.302 225.869 702.302ZM226.446 700.171C227.18 700.171 227.807 700.026 228.328 699.736C228.855 699.446 229.254 699.067 229.527 698.6C229.805 698.126 229.944 697.62 229.944 697.082V695.324C229.849 695.419 229.666 695.507 229.394 695.59C229.127 695.667 228.822 695.735 228.479 695.794C228.136 695.848 227.801 695.898 227.476 695.945C227.15 695.987 226.878 696.022 226.659 696.052C226.144 696.117 225.674 696.226 225.248 696.38C224.827 696.534 224.49 696.756 224.236 697.046C223.987 697.33 223.863 697.709 223.863 698.183C223.863 698.839 224.105 699.337 224.591 699.674C225.076 700.005 225.694 700.171 226.446 700.171ZM238.789 683.818V702H236.134V683.818H238.789ZM245.014 683.818V702H242.36V683.818H245.014ZM258.158 702L254.145 688.364H256.888L259.56 698.378H259.694L262.375 688.364H265.118L267.781 698.333H267.915L270.569 688.364H273.312L269.308 702H266.601L263.831 692.154H263.627L260.857 702H258.158ZM275.831 702V688.364H278.486V702H275.831ZM277.172 686.26C276.71 686.26 276.314 686.106 275.982 685.798C275.657 685.484 275.494 685.111 275.494 684.679C275.494 684.241 275.657 683.868 275.982 683.561C276.314 683.247 276.71 683.09 277.172 683.09C277.634 683.09 278.027 683.247 278.353 683.561C278.684 683.868 278.85 684.241 278.85 684.679C278.85 685.111 278.684 685.484 278.353 685.798C278.027 686.106 277.634 686.26 277.172 686.26ZM288.422 688.364V690.494H280.974V688.364H288.422ZM282.971 685.097H285.626V697.996C285.626 698.511 285.703 698.899 285.857 699.159C286.011 699.414 286.209 699.588 286.451 699.683C286.7 699.772 286.969 699.816 287.259 699.816C287.472 699.816 287.659 699.801 287.819 699.772C287.978 699.742 288.103 699.718 288.191 699.701L288.671 701.893C288.517 701.953 288.298 702.012 288.014 702.071C287.73 702.136 287.375 702.172 286.949 702.178C286.25 702.189 285.599 702.065 284.995 701.805C284.392 701.544 283.903 701.142 283.531 700.597C283.158 700.053 282.971 699.369 282.971 698.547V685.097ZM294.306 693.903V702H291.652V683.818H294.271V690.583H294.439C294.759 689.849 295.247 689.266 295.904 688.834C296.561 688.402 297.419 688.186 298.479 688.186C299.414 688.186 300.231 688.378 300.929 688.763C301.633 689.148 302.178 689.722 302.562 690.485C302.953 691.243 303.148 692.19 303.148 693.326V702H300.494V693.646C300.494 692.646 300.237 691.87 299.722 691.32C299.207 690.764 298.491 690.485 297.573 690.485C296.946 690.485 296.384 690.619 295.886 690.885C295.395 691.151 295.007 691.542 294.723 692.057C294.445 692.566 294.306 693.181 294.306 693.903Z" fill="#928282"/>
<path d="M163.289 713.818V732H160.767L151.526 718.665H151.357V732H148.614V713.818H151.153L160.403 727.17H160.572V713.818H163.289ZM172.955 732.275C171.611 732.275 170.454 731.988 169.483 731.414C168.519 730.834 167.773 730.02 167.246 728.973C166.725 727.919 166.465 726.685 166.465 725.271C166.465 723.874 166.725 722.643 167.246 721.577C167.773 720.512 168.507 719.681 169.448 719.083C170.395 718.485 171.502 718.186 172.768 718.186C173.538 718.186 174.283 718.313 175.005 718.568C175.727 718.822 176.375 719.222 176.95 719.766C177.524 720.311 177.976 721.018 178.308 721.888C178.639 722.752 178.805 723.803 178.805 725.04V725.981H167.965V723.992H176.204C176.204 723.294 176.062 722.675 175.778 722.137C175.494 721.592 175.094 721.163 174.579 720.849C174.07 720.536 173.472 720.379 172.786 720.379C172.04 720.379 171.389 720.562 170.833 720.929C170.282 721.29 169.856 721.764 169.554 722.35C169.258 722.93 169.11 723.56 169.11 724.241V725.794C169.11 726.706 169.27 727.481 169.59 728.12C169.915 728.76 170.368 729.248 170.948 729.585C171.528 729.917 172.206 730.082 172.981 730.082C173.484 730.082 173.943 730.011 174.357 729.869C174.772 729.721 175.13 729.502 175.431 729.212C175.733 728.922 175.964 728.564 176.124 728.138L178.636 728.591C178.435 729.331 178.074 729.979 177.553 730.535C177.038 731.086 176.39 731.515 175.609 731.822C174.834 732.124 173.949 732.275 172.955 732.275ZM184.682 732L180.669 718.364H183.413L186.085 728.378H186.218L188.899 718.364H191.642L194.306 728.333H194.439L197.093 718.364H199.837L195.833 732H193.125L190.355 722.154H190.151L187.381 732H184.682ZM215.462 718.364V720.494H207.756V718.364H215.462ZM209.869 732V716.783C209.869 715.931 210.055 715.224 210.428 714.662C210.801 714.093 211.295 713.67 211.911 713.392C212.526 713.108 213.195 712.966 213.917 712.966C214.45 712.966 214.905 713.01 215.284 713.099C215.663 713.182 215.944 713.259 216.127 713.33L215.506 715.478C215.382 715.443 215.222 715.401 215.027 715.354C214.831 715.301 214.595 715.274 214.316 715.274C213.671 715.274 213.21 715.434 212.931 715.754C212.659 716.073 212.523 716.535 212.523 717.138V732H209.869ZM218.2 732V718.364H220.766V720.53H220.908C221.157 719.796 221.595 719.219 222.222 718.799C222.855 718.373 223.572 718.159 224.371 718.159C224.536 718.159 224.732 718.165 224.956 718.177C225.187 718.189 225.368 718.204 225.498 718.222V720.761C225.392 720.731 225.202 720.699 224.93 720.663C224.658 720.622 224.385 720.601 224.113 720.601C223.486 720.601 222.926 720.734 222.435 721C221.95 721.261 221.565 721.625 221.281 722.092C220.997 722.554 220.855 723.081 220.855 723.673V732H218.2ZM227.795 732V718.364H230.45V732H227.795ZM229.136 716.26C228.674 716.26 228.278 716.106 227.946 715.798C227.621 715.484 227.458 715.111 227.458 714.679C227.458 714.241 227.621 713.868 227.946 713.561C228.278 713.247 228.674 713.09 229.136 713.09C229.597 713.09 229.991 713.247 230.316 713.561C230.648 713.868 230.814 714.241 230.814 714.679C230.814 715.111 230.648 715.484 230.316 715.798C229.991 716.106 229.597 716.26 229.136 716.26ZM239.898 732.275C238.554 732.275 237.397 731.988 236.427 731.414C235.462 730.834 234.716 730.02 234.189 728.973C233.669 727.919 233.408 726.685 233.408 725.271C233.408 723.874 233.669 722.643 234.189 721.577C234.716 720.512 235.45 719.681 236.391 719.083C237.338 718.485 238.445 718.186 239.711 718.186C240.481 718.186 241.227 718.313 241.949 718.568C242.671 718.822 243.319 719.222 243.893 719.766C244.467 720.311 244.92 721.018 245.251 721.888C245.583 722.752 245.748 723.803 245.748 725.04V725.981H234.909V723.992H243.147C243.147 723.294 243.005 722.675 242.721 722.137C242.437 721.592 242.037 721.163 241.523 720.849C241.014 720.536 240.416 720.379 239.729 720.379C238.983 720.379 238.332 720.562 237.776 720.929C237.226 721.29 236.8 721.764 236.498 722.35C236.202 722.93 236.054 723.56 236.054 724.241V725.794C236.054 726.706 236.214 727.481 236.533 728.12C236.859 728.76 237.311 729.248 237.892 729.585C238.472 729.917 239.149 730.082 239.925 730.082C240.428 730.082 240.886 730.011 241.301 729.869C241.715 729.721 242.073 729.502 242.375 729.212C242.677 728.922 242.907 728.564 243.067 728.138L245.58 728.591C245.378 729.331 245.017 729.979 244.497 730.535C243.982 731.086 243.334 731.515 242.552 731.822C241.777 732.124 240.892 732.275 239.898 732.275ZM251.348 723.903V732H248.694V718.364H251.242V720.583H251.41C251.724 719.861 252.215 719.281 252.884 718.843C253.559 718.405 254.408 718.186 255.432 718.186C256.361 718.186 257.175 718.381 257.873 718.772C258.572 719.157 259.113 719.731 259.498 720.494C259.883 721.258 260.075 722.202 260.075 723.326V732H257.421V723.646C257.421 722.658 257.163 721.885 256.648 721.329C256.133 720.767 255.426 720.485 254.526 720.485C253.911 720.485 253.363 720.619 252.884 720.885C252.41 721.151 252.035 721.542 251.756 722.057C251.484 722.566 251.348 723.181 251.348 723.903ZM268.74 732.266C267.639 732.266 266.656 731.985 265.792 731.423C264.934 730.855 264.259 730.047 263.768 728.999C263.283 727.946 263.04 726.682 263.04 725.208C263.04 723.735 263.286 722.474 263.777 721.426C264.274 720.379 264.955 719.577 265.819 719.021C266.683 718.464 267.663 718.186 268.758 718.186C269.604 718.186 270.285 718.328 270.799 718.612C271.32 718.89 271.723 719.216 272.007 719.589C272.297 719.962 272.522 720.29 272.682 720.574H272.841V713.818H275.496V732H272.903V729.878H272.682C272.522 730.168 272.291 730.5 271.989 730.873C271.693 731.245 271.285 731.571 270.764 731.849C270.243 732.127 269.568 732.266 268.74 732.266ZM269.326 730.002C270.089 730.002 270.734 729.801 271.261 729.399C271.794 728.99 272.196 728.425 272.468 727.703C272.747 726.981 272.886 726.141 272.886 725.182C272.886 724.235 272.75 723.406 272.477 722.696C272.205 721.986 271.806 721.432 271.279 721.036C270.752 720.639 270.101 720.441 269.326 720.441C268.527 720.441 267.861 720.648 267.328 721.062C266.796 721.477 266.393 722.042 266.121 722.758C265.854 723.474 265.721 724.282 265.721 725.182C265.721 726.093 265.857 726.913 266.13 727.641C266.402 728.369 266.804 728.946 267.337 729.372C267.876 729.792 268.539 730.002 269.326 730.002ZM289.503 721.693L287.097 722.119C286.996 721.811 286.837 721.518 286.618 721.24C286.404 720.962 286.114 720.734 285.748 720.556C285.381 720.379 284.922 720.29 284.371 720.29C283.62 720.29 282.992 720.459 282.489 720.796C281.986 721.128 281.735 721.557 281.735 722.083C281.735 722.539 281.903 722.906 282.241 723.184C282.578 723.462 283.123 723.69 283.874 723.868L286.04 724.365C287.295 724.655 288.23 725.102 288.846 725.706C289.461 726.309 289.769 727.094 289.769 728.058C289.769 728.875 289.532 729.603 289.059 730.242C288.591 730.875 287.937 731.373 287.097 731.734C286.262 732.095 285.295 732.275 284.194 732.275C282.667 732.275 281.421 731.95 280.456 731.299C279.492 730.642 278.9 729.71 278.681 728.502L281.246 728.112C281.406 728.78 281.735 729.286 282.232 729.63C282.729 729.967 283.377 730.136 284.176 730.136C285.046 730.136 285.742 729.955 286.262 729.594C286.783 729.227 287.044 728.78 287.044 728.254C287.044 727.827 286.884 727.469 286.564 727.179C286.251 726.889 285.768 726.67 285.117 726.522L282.809 726.016C281.536 725.726 280.595 725.265 279.986 724.631C279.382 723.998 279.08 723.196 279.08 722.225C279.08 721.421 279.305 720.716 279.755 720.113C280.205 719.509 280.826 719.038 281.619 718.701C282.412 718.358 283.321 718.186 284.345 718.186C285.819 718.186 286.979 718.506 287.825 719.145C288.671 719.778 289.231 720.627 289.503 721.693Z" fill="#928282"/>
<path fill-rule="evenodd" clip-rule="evenodd" d="M-21.5 105C46.7072 105 102 48.8117 102 -20.5C102 -89.8117 46.7072 -146 -21.5 -146C-89.7072 -146 -145 -89.8117 -145 -20.5C-145 48.8117 -89.7072 105 -21.5 105ZM-21.5 102.926C45.5798 102.926 99.9587 47.6661 99.9587 -20.5C99.9587 -88.6661 45.5798 -143.926 -21.5 -143.926C-88.5798 -143.926 -142.959 -88.6661 -142.959 -20.5C-142.959 47.6661 -88.5798 102.926 -21.5 102.926Z" fill="#BBA2F7"/>
<path fill-rule="evenodd" clip-rule="evenodd" d="M17.5 172C98.962 172 165 105.962 165 24.5C165 -56.962 98.962 -123 17.5 -123C-63.962 -123 -130 -56.962 -130 24.5C-130 105.962 -63.962 172 17.5 172ZM17.5 169.562C97.6155 169.562 162.562 104.616 162.562 24.5C162.562 -55.6155 97.6155 -120.562 17.5 -120.562C-62.6155 -120.562 -127.562 -55.6155 -127.562 24.5C-127.562 104.616 -62.6155 169.562 17.5 169.562Z" fill="#BBA2F7"/>
<path fill-rule="evenodd" clip-rule="evenodd" d="M-65.442 220.686C23.026 278.643 141.728 253.91 199.686 165.442C257.643 76.9738 232.91 -41.7278 144.442 -99.6857C55.9739 -157.644 -62.7278 -132.91 -120.686 -44.4421C-178.644 44.026 -153.91 162.728 -65.442 220.686ZM-63.7075 218.038C23.2983 275.038 140.038 250.713 197.038 163.707C254.038 76.7016 229.713 -40.0381 142.707 -97.038C55.7016 -154.038 -61.0381 -129.713 -118.038 -42.7075C-175.038 44.2983 -150.713 161.038 -63.7075 218.038Z" fill="#BBA2F7"/>
<g filter="url(#filter0_i_10_87)">
<path fill-rule="evenodd" clip-rule="evenodd" d="M121.03 188.412C89.5332 198.709 72.3471 232.589 82.6438 264.086L110.48 349.235C120.777 380.731 154.657 397.917 186.154 387.621L289.444 353.854C318.782 344.263 335.704 314.21 329.564 284.681L351.596 290.208C363.045 293.08 373.172 282.214 369.502 270.995L337.494 173.139C333.824 161.92 319.233 159.14 311.695 168.223L297.106 185.8C284.328 158.977 253.314 145.167 224.32 154.645L121.03 188.412Z" fill="#663BFE"/>
</g>
<g filter="url(#filter1_d_10_87)">
<path d="M246.282 244.964C253.779 246.71 256.576 255.917 251.315 261.537L208.325 307.47C203.064 313.09 193.692 310.908 191.455 303.543L173.172 243.345C170.935 235.979 177.51 228.954 185.008 230.7L246.282 244.964Z" fill="url(#paint1_linear_10_87)"/>
</g>
<path d="M321.013 417.586C320.494 416.522 320.665 415.203 320.827 414.117C320.948 413.311 321.097 412.509 321.208 411.697C321.384 410.403 321.627 409.156 321.837 407.873C322.773 402.17 325.374 397.048 327.828 392.082C328.449 390.827 329.167 389.71 329.972 388.589C333.203 384.095 336.446 379.584 339.891 375.28C341.391 373.407 343.109 371.747 344.841 370.122C347.12 367.983 349.448 365.863 351.919 363.968C359.366 358.256 367.766 353.859 376.338 350.161" stroke="white" stroke-width="3" stroke-linecap="round"/>
<path d="M94.1549 442C94.9576 440.428 94.9243 438.553 94.8701 437.01C94.8299 435.866 94.7526 434.729 94.7257 433.574C94.6828 431.736 94.5493 429.969 94.4614 428.148C94.071 420.055 91.4983 412.942 89.0877 406.04C88.4786 404.296 87.7272 402.758 86.8655 401.222C83.4094 395.065 79.9411 388.886 76.188 383.021C74.554 380.467 72.615 378.241 70.6544 376.064C68.0735 373.199 65.4277 370.366 62.5714 367.869C53.9609 360.34 43.9641 354.78 33.654 350.238" stroke="white" stroke-width="3" stroke-linecap="round"/>
<path d="M306.061 411.241C306.061 405.553 302.107 396.036 306.061 387C310.014 377.964 314.498 368 317.068 362.861C327.105 342.787 343.509 335.498 362.504 326" stroke="white" stroke-width="3" stroke-linecap="round" stroke-dasharray="6 6"/>
<circle cx="391.5" cy="341.5" r="8.5" fill="white"/>
</g>
<defs>
<filter id="filter0_i_10_87" x="79.6577" y="151.659" width="297.609" height="253.948" filterUnits="userSpaceOnUse" color-interpolation-filters="sRGB">
<feFlood flood-opacity="0" result="BackgroundImageFix"/>
<feBlend mode="normal" in="SourceGraphic" in2="BackgroundImageFix" result="shape"/>
<feColorMatrix in="SourceAlpha" type="matrix" values="0 0 0 0 0 0 0 0 0 0 0 0 0 0 0 0 0 0 127 0" result="hardAlpha"/>
<feOffset dx="7" dy="15"/>
<feGaussianBlur stdDeviation="25"/>
<feComposite in2="hardAlpha" operator="arithmetic" k2="-1" k3="1"/>
<feColorMatrix type="matrix" values="0 0 0 0 1 0 0 0 0 1 0 0 0 0 1 0 0 0 1 0"/>
<feBlend mode="color-dodge" in2="shape" result="effect1_innerShadow_10_87"/>
</filter>
<filter id="filter1_d_10_87" x="132.729" y="194.43" width="161.293" height="160.211" filterUnits="userSpaceOnUse" color-interpolation-filters="sRGB">
<feFlood flood-opacity="0" result="BackgroundImageFix"/>
<feColorMatrix in="SourceAlpha" type="matrix" values="0 0 0 0 0 0 0 0 0 0 0 0 0 0 0 0 0 0 127 0" result="hardAlpha"/>
<feOffset dy="4"/>
<feGaussianBlur stdDeviation="20"/>
<feComposite in2="hardAlpha" operator="out"/>
<feColorMatrix type="matrix" values="0 0 0 0 0 0 0 0 0 0 0 0 0 0 0 0 0 0 0.25 0"/>
<feBlend mode="normal" in2="BackgroundImageFix" result="effect1_dropShadow_10_87"/>
<feBlend mode="normal" in="SourceGraphic" in2="effect1_dropShadow_10_87" result="shape"/>
</filter>
<linearGradient id="paint0_linear_10_87" x1="215" y1="0" x2="215" y2="932" gradientUnits="userSpaceOnUse">
<stop offset="0.19043" stop-color="#AA8CFC"/>
<stop offset="1" stop-color="#FFFDFE"/>
</linearGradient>
<linearGradient id="paint1_linear_10_87" x1="223.5" y1="276" x2="179.5" y2="239" gradientUnits="userSpaceOnUse">
<stop stop-color="#DEC0FD"/>
<stop offset="1" stop-color="#F7EFFB"/>
</linearGradient>
<clipPath id="clip0_10_87">
<rect width="430" height="932" fill="white"/>
</clipPath>
</defs>
</svg>
